<svg width="30" height="30" viewBox="0 0 30 30" fill="none" xmlns="http://www.w3.org/2000/svg">
<path d="M14.9995 0C6.71571 0 0 6.71591 0 15C0 23.2838 6.71571 29.9999 14.9995 29.9999C23.2838 29.9999 30 23.2837 30 15C30 6.71591 23.2838 0 14.9995 0ZM21.0951 21.7135V22.7509C21.0951 23.3238 20.6305 23.7883 20.0576 23.7883H19.0202H13.2945H9.68306C8.53724 23.7883 7.60813 22.8593 7.60813 21.7134V8.65924C7.60813 7.51343 8.53714 6.58431 9.68306 6.58431H13.2944H19.0201H20.0575C20.6304 6.58431 21.095 7.04882 21.095 7.62173V8.65924L21.0951 21.7135ZM23.1699 8.65924V21.7135V22.7509C23.1699 23.3238 22.7054 23.7883 22.1325 23.7883H21.8519C22.0293 23.4828 22.1325 23.129 22.1325 22.7509V21.7135V8.65924V7.62193C22.1325 7.24382 22.0293 6.89002 21.8519 6.58451H22.1325C22.7054 6.58451 23.1699 7.04902 23.1699 7.62193V8.65924Z" fill="#93D9FB"/>
<path d="M17.5593 16.5522C17.5593 16.5522 17.1684 16.083 16.7356 16.4067C16.4129 16.6479 15.8332 17.1843 15.6939 17.3145C15.6939 17.3145 14.7249 16.7979 14.1515 16.3261C13.3021 15.6276 12.7341 14.7653 12.4364 14.2748L12.2141 13.8557C12.2916 13.7722 12.8851 13.1368 13.1418 12.7917C13.465 12.3591 12.9966 11.9682 12.9966 11.9682C12.9966 11.9682 11.6783 10.6499 11.3782 10.3884C11.0779 10.1262 10.732 10.2717 10.732 10.2717C10.1005 10.6799 9.44613 11.0345 9.40723 12.7403C9.40593 14.3373 10.6181 15.9842 11.9288 17.2592C13.2419 18.6994 15.045 20.1426 16.7877 20.141C18.4932 20.1026 18.8475 19.448 19.2555 18.8165C19.2555 18.8165 19.4015 18.4709 19.1396 18.1706C18.8776 17.8698 17.5593 16.5522 17.5593 16.5522Z" fill="#93D9FB"/>
</svg>
