<svg width="16" height="21" viewBox="0 0 16 21" fill="none" xmlns="http://www.w3.org/2000/svg">
<path d="M15.3948 3.46592L8.39442 0.46577C8.14041 0.357764 7.85839 0.357764 7.60438 0.46577L0.60403 3.46592C0.238012 3.62193 0 3.98395 0 4.38397V8.38417C0 13.8864 2.0341 17.1026 7.50238 20.2528C7.65638 20.3408 7.82839 20.3848 8.0004 20.3848C8.17241 20.3848 8.34442 20.3408 8.49842 20.2528C13.9667 17.1106 16.0008 13.8944 16.0008 8.38417V4.38397C16.0008 3.98395 15.7628 3.62193 15.3948 3.46592ZM11.7826 8.01015L7.78239 13.0104C7.59038 13.2464 7.30237 13.3844 7.00035 13.3844C6.98635 13.3844 6.97035 13.3844 6.95835 13.3844C6.64033 13.3704 6.34632 13.2064 6.16831 12.9404L4.16821 9.94024C3.86219 9.48022 3.9862 8.86019 4.44622 8.55417C4.90224 8.25016 5.52428 8.37016 5.83229 8.83219L7.07435 10.6943L10.2185 6.76208C10.5645 6.33206 11.1946 6.26406 11.6246 6.60608C12.0566 6.94809 12.1246 7.57812 11.7826 8.01015Z" fill="white"/>
</svg>
