<svg width="20" height="18" viewBox="0 0 20 18" fill="none" xmlns="http://www.w3.org/2000/svg">
<path d="M8.75 5.38422V4.13422H1.25C0.56125 4.13422 0 4.69547 0 5.38422V7.88422H9.01375C8.84 7.12047 8.75 6.29797 8.75 5.38422Z" fill="white"/>
<path d="M19.9487 10.3842C19.0962 11.6979 17.7962 12.8154 15.9338 13.8854C15.6475 14.0492 15.325 14.1342 15 14.1342C14.675 14.1342 14.3525 14.0492 14.07 13.8879C12.2075 12.8154 10.9075 11.6967 10.0538 10.3842H0V16.6342C0 17.3242 0.56125 17.8842 1.25 17.8842H18.75C19.44 17.8842 20 17.3242 20 16.6342V10.3842H19.9487ZM5.625 14.1342H3.125C2.78 14.1342 2.5 13.8542 2.5 13.5092C2.5 13.1642 2.78 12.8842 3.125 12.8842H5.625C5.97 12.8842 6.25 13.1642 6.25 13.5092C6.25 13.8542 5.97 14.1342 5.625 14.1342Z" fill="white"/>
<path d="M19.6213 2.31039L15.2463 0.435391C15.0876 0.367891 14.9113 0.367891 14.7526 0.435391L10.3776 2.31039C10.1488 2.40789 10.0001 2.63414 10.0001 2.88414V5.38414C10.0001 8.82289 11.2713 10.8329 14.6888 12.8016C14.7851 12.8566 14.8926 12.8841 15.0001 12.8841C15.1076 12.8841 15.2151 12.8566 15.3113 12.8016C18.7288 10.8379 20.0001 8.82789 20.0001 5.38414V2.88414C20.0001 2.63414 19.8513 2.40789 19.6213 2.31039ZM17.3638 5.15039L14.8638 8.27539C14.7438 8.42289 14.5638 8.50914 14.3751 8.50914C14.3663 8.50914 14.3563 8.50914 14.3488 8.50914C14.1501 8.50039 13.9663 8.39789 13.8551 8.23164L12.6051 6.35664C12.4138 6.06914 12.4913 5.68164 12.7788 5.49039C13.0638 5.30039 13.4526 5.37539 13.6451 5.66414L14.4213 6.82789L16.3863 4.37039C16.6026 4.10164 16.9963 4.05914 17.2651 4.27289C17.5351 4.48664 17.5776 4.88039 17.3638 5.15039Z" fill="white"/>
</svg>
