<svg width="20" height="21" viewBox="0 0 20 21" fill="none" xmlns="http://www.w3.org/2000/svg">
<path d="M1.88205 5.94934C-0.646674 9.20573 -0.625143 13.7679 1.9342 17.0002C3.77194 19.3153 6.63665 20.5705 9.58442 20.352C12.5322 20.1336 15.1806 18.47 16.657 15.9093L16.118 10.5183C16.0831 10.1697 16.1054 9.81769 16.1841 9.47627L16.3656 8.69036C15.774 8.56063 15.1573 8.74368 14.7323 9.17512L12.9676 10.9398C12.4986 11.4088 11.8625 11.6723 11.1993 11.6723C10.5361 11.6723 9.89998 11.4088 9.43102 10.9398C8.45748 9.96127 8.45748 8.38004 9.43102 7.40148L11.2004 5.63569C11.6845 5.16296 11.8516 4.45285 11.629 3.81382C11.4156 3.15831 10.8427 2.68509 10.1587 2.59924C6.99843 2.14899 3.83937 3.42767 1.88205 5.94934ZM10.9292 13.4483C11.0694 13.3129 11.2922 13.3149 11.43 13.4526C11.5678 13.5904 11.5697 13.8133 11.4344 13.9534C11.1999 14.1879 11.0681 14.5059 11.0681 14.8376C11.0681 15.1692 11.1999 15.4872 11.4344 15.7217C11.9292 16.1939 12.7078 16.1939 13.2026 15.7217C13.4371 15.4872 13.5689 15.1692 13.5689 14.8376C13.5689 14.5059 13.4371 14.1879 13.2026 13.9534C13.0673 13.8133 13.0692 13.5904 13.207 13.4526C13.3448 13.3149 13.5676 13.3129 13.7078 13.4483C14.2697 14.0102 14.4378 14.8553 14.1337 15.5895C13.8296 16.3237 13.1132 16.8024 12.3185 16.8024C11.5238 16.8024 10.8074 16.3237 10.5033 15.5895C10.1992 14.8553 10.3673 14.0102 10.9292 13.4483ZM8.70656 15.2344C9.26849 15.7964 9.4366 16.6414 9.1325 17.3756C8.8284 18.1098 8.11197 18.5885 7.31729 18.5885C6.52261 18.5885 5.80618 18.1098 5.50208 17.3756C5.19798 16.6414 5.36609 15.7964 5.92803 15.2344C6.0682 15.0991 6.291 15.101 6.4288 15.2388C6.56659 15.3766 6.56853 15.5994 6.43315 15.7396C6.19864 15.974 6.0669 16.2921 6.0669 16.6237C6.0669 16.9553 6.19864 17.2734 6.43315 17.5079C6.92799 17.9801 7.70659 17.9801 8.20143 17.5079C8.43594 17.2734 8.56768 16.9553 8.56768 16.6237C8.56768 16.2921 8.43594 15.974 8.20143 15.7396C8.06605 15.5994 8.06799 15.3766 8.20578 15.2388C8.34358 15.101 8.56639 15.0991 8.70656 15.2344ZM6.47316 3.59591C7.63291 3.23395 8.85879 3.13522 10.0615 3.30692C10.2486 3.34276 10.3746 3.51906 10.348 3.70766C10.3214 3.89625 10.1515 4.03081 9.96186 4.01352C8.86345 3.85697 7.74397 3.9469 6.68464 4.27679C6.64997 4.28776 6.61383 4.2933 6.57747 4.29323C6.40064 4.29383 6.24997 4.16497 6.22315 3.99018C6.19633 3.8154 6.30142 3.64729 6.4703 3.59484L6.47316 3.59591ZM4.49911 5.50781C4.63889 5.36832 4.86528 5.36856 5.00477 5.50834C5.14425 5.64812 5.14401 5.87451 5.00423 6.014C4.76973 6.24848 4.63798 6.56652 4.63798 6.89814C4.63798 7.22976 4.76973 7.5478 5.00423 7.78228C5.49908 8.25451 6.27767 8.25451 6.77252 7.78228C7.00702 7.5478 7.13877 7.22976 7.13877 6.89814C7.13877 6.56652 7.00702 6.24848 6.77252 6.014C6.63714 5.87383 6.63907 5.65102 6.77687 5.51323C6.91466 5.37543 7.13747 5.3735 7.27764 5.50888C7.83957 6.07079 8.00769 6.91587 7.70358 7.65007C7.39948 8.38426 6.68305 8.86297 5.88837 8.86297C5.09369 8.86297 4.37727 8.38426 4.07316 7.65007C3.76906 6.91587 3.93717 6.07079 4.49911 5.50888V5.50781ZM2.86086 11.3392C2.62635 11.5737 2.49461 11.8917 2.49461 12.2234C2.49461 12.555 2.62635 12.873 2.86086 13.1075C3.3557 13.5797 4.13429 13.5797 4.62914 13.1075C4.86365 12.873 4.99539 12.555 4.99539 12.2234C4.99539 11.8917 4.86365 11.5737 4.62914 11.3392C4.53628 11.2495 4.49903 11.1167 4.53173 10.9918C4.56442 10.8669 4.66196 10.7694 4.78686 10.7367C4.91175 10.704 5.04457 10.7412 5.13426 10.8341C5.6962 11.396 5.86431 12.2411 5.56021 12.9753C5.25611 13.7095 4.53968 14.1882 3.745 14.1882C2.95032 14.1882 2.23389 13.7095 1.92979 12.9753C1.62569 12.2411 1.7938 11.396 2.35573 10.8341C2.44543 10.7412 2.57824 10.704 2.70314 10.7367C2.82804 10.7694 2.92558 10.8669 2.95827 10.9918C2.99096 11.1167 2.95372 11.2495 2.86086 11.3392Z" fill="white"/>
<path d="M16.7309 3.0826C16.5407 3.44608 16.4369 3.8485 16.4276 4.2586C16.4176 5.25578 17.2166 6.07292 18.2137 6.08547C18.734 6.08235 19.2262 5.849 19.558 5.44817C19.4865 5.4346 19.4151 5.42424 19.3436 5.40531C18.6703 5.22048 18.0825 4.80647 17.6818 4.23467C17.5964 4.10964 17.5207 3.97925 17.4457 3.84886C17.339 3.63871 17.2029 3.44491 17.0413 3.27336C16.9503 3.19137 16.8451 3.12671 16.7309 3.0826Z" fill="white"/>
<path d="M17.1423 10.3722H16.8286C16.8304 10.3972 16.8286 10.4222 16.8286 10.4472L17.7824 19.9852C17.8045 20.2062 17.9904 20.3745 18.2125 20.3745C18.4346 20.3745 18.6205 20.2062 18.6426 19.9852L19.5964 10.4472C19.5989 10.4222 19.5964 10.3972 19.5964 10.3722H18.5712C18.3739 10.3722 18.2139 10.2123 18.2139 10.015C18.2139 9.81768 18.3739 9.65775 18.5712 9.65775H19.5493C19.5493 9.65096 19.5493 9.64381 19.5464 9.63703L18.8713 6.70775C18.4417 6.83064 17.9862 6.83064 17.5566 6.70775L16.8818 9.63703C16.8801 9.64381 16.8801 9.65096 16.8786 9.65775H17.1423C17.3396 9.65775 17.4995 9.81768 17.4995 10.015C17.4995 10.2123 17.3396 10.3722 17.1423 10.3722Z" fill="white"/>
<path d="M19.2107 0.384766C18.4113 0.972198 17.7014 1.67252 17.1031 2.46384C17.2581 2.53728 17.4012 2.63362 17.5275 2.74962C17.7424 2.96818 17.9231 3.21796 18.0633 3.49052C18.1294 3.60519 18.1948 3.7195 18.2687 3.82774C18.5725 4.26047 19.0177 4.57366 19.5276 4.71331C19.6552 4.7462 19.7855 4.76736 19.917 4.77654C19.9692 4.60874 19.9972 4.4343 19.9999 4.25856C19.9767 3.72832 19.8363 3.20981 19.5887 2.74034C19.1976 2.04099 19.0649 1.22636 19.214 0.439064C19.2184 0.421052 19.2172 0.402134 19.2107 0.384766Z" fill="white"/>
</svg>
