<svg width="96" height="32" viewBox="0 0 96 32" fill="none" xmlns="http://www.w3.org/2000/svg">
<path d="M25.2194 20.0118C24.7234 21.0975 24.4862 21.5818 23.8464 22.5415C22.9551 23.8809 21.6971 25.5503 20.1409 25.5645C18.7571 25.5769 18.4013 24.6757 16.5234 24.6864C14.6454 24.697 14.2537 25.5805 12.8699 25.5681C11.3137 25.5539 10.1222 24.0477 9.23089 22.7065C6.73657 18.9597 6.47779 14.5619 8.01428 12.2255C9.10689 10.565 10.8303 9.59277 12.4512 9.59277C14.1009 9.59277 15.1396 10.4869 16.5036 10.4869C17.828 10.4869 18.6349 9.59277 20.5416 9.59277C21.9846 9.59277 23.5121 10.368 24.6012 11.7092C21.034 13.6376 21.6144 18.667 25.2194 20.0118Z" fill="white"/>
<path d="M19.0961 8.09369C19.7898 7.21553 20.3163 5.9737 20.1241 4.70703C18.9919 4.78332 17.6675 5.49471 16.8929 6.42253C16.1903 7.26521 15.6116 8.51236 15.8363 9.72581C17.0744 9.76484 18.354 9.0357 19.0961 8.09369Z" fill="white"/>
<path d="M32.8611 7.9002C32.8611 8.31405 32.7076 8.6478 32.4005 8.90145C32.0979 9.1551 31.7152 9.28192 31.2524 9.28192C30.892 9.28192 30.5805 9.23742 30.3179 9.14843C30.0598 9.05497 29.8106 8.89032 29.5703 8.65447L30.0442 8.17387C30.378 8.48092 30.7763 8.63445 31.2391 8.63445C31.4927 8.63445 31.7041 8.5677 31.8732 8.4342C32.0467 8.29625 32.1335 8.11157 32.1335 7.88017C32.1335 7.63097 32.0579 7.44185 31.9066 7.3128C31.7597 7.1793 31.555 7.11255 31.2925 7.11255H30.7251V6.5118H31.3058C31.5461 6.5118 31.733 6.4495 31.8665 6.3249C32 6.19585 32.0668 6.01562 32.0668 5.78422C32.0668 5.56617 31.9889 5.39485 31.8331 5.27024C31.6818 5.14564 31.486 5.08334 31.2457 5.08334C30.8185 5.08334 30.4648 5.20794 30.1844 5.45715L29.7372 4.99657C30.151 4.63167 30.6628 4.44922 31.2724 4.44922C31.7085 4.44922 32.069 4.56714 32.3538 4.80299C32.643 5.03884 32.7877 5.35034 32.7877 5.7375C32.7877 6.227 32.5696 6.57632 32.1335 6.78547C32.6186 6.98127 32.8611 7.35285 32.8611 7.9002Z" fill="white"/>
<path d="M36.6783 9.24187H36.0108V8.93482C35.8773 9.06833 35.746 9.15955 35.617 9.2085C35.4879 9.253 35.3188 9.27525 35.1097 9.27525C34.7314 9.27525 34.44 9.18847 34.2353 9.01492C34.035 8.83692 33.9349 8.58327 33.9349 8.25397C33.9349 7.94692 34.0372 7.70662 34.2419 7.53307C34.4511 7.35952 34.7359 7.27275 35.0963 7.27275H36.0041V7.02577C36.0041 6.80772 35.9441 6.64975 35.8239 6.55185C35.7038 6.4495 35.5102 6.39832 35.2432 6.39832C35.0563 6.39832 34.905 6.42725 34.7893 6.4851C34.7003 6.52515 34.6091 6.60525 34.5156 6.7254L34.0684 6.30487C34.2375 6.12242 34.3843 6.0045 34.5089 5.9511C34.6914 5.8621 34.9428 5.8176 35.2632 5.8176C36.2066 5.8176 36.6783 6.20475 36.6783 6.97905V9.24187ZM36.0041 8.02035V7.75335H35.2031C34.7982 7.75335 34.5957 7.91355 34.5957 8.23395C34.5957 8.55435 34.8182 8.71455 35.2632 8.71455C35.5258 8.71455 35.7149 8.66115 35.8306 8.55435C35.9463 8.44755 36.0041 8.26955 36.0041 8.02035Z" fill="white"/>
<path d="M40.2846 6.45172H38.7694V9.24187H38.0886V5.85765H40.2846V6.45172Z" fill="white"/>
<path d="M44.0012 7.55977C44.0012 8.25397 43.8766 8.72567 43.6274 8.97487C43.4227 9.17957 43.1423 9.28192 42.7863 9.28192C42.595 9.28192 42.4348 9.253 42.3057 9.19515C42.1767 9.1373 42.0476 9.03717 41.9186 8.89477V10.6103H41.2377V5.85765H41.9052V6.21142C42.0476 6.06457 42.1789 5.96222 42.299 5.90437C42.4236 5.84652 42.5838 5.8176 42.7796 5.8176C43.4115 5.8176 43.7942 6.10907 43.9277 6.69202C43.9767 6.91007 44.0012 7.19932 44.0012 7.55977ZM43.1601 8.41417C43.2714 8.24062 43.327 7.95137 43.327 7.54642C43.327 7.14147 43.2714 6.85445 43.1601 6.68535C43.0533 6.5118 42.8731 6.42502 42.6194 6.42502C42.3435 6.42502 42.1522 6.53405 42.0454 6.7521C41.9608 6.92565 41.9186 7.19932 41.9186 7.57312C41.9186 7.96472 41.9742 8.2473 42.0854 8.42085C42.1967 8.58995 42.3769 8.6745 42.6261 8.6745C42.8753 8.6745 43.0533 8.58772 43.1601 8.41417Z" fill="white"/>
<path d="M47.7393 5.85765L46.2441 9.91605C46.0839 10.3611 45.7701 10.5836 45.3029 10.5836H45.0292V9.96945H45.2028C45.3452 9.96945 45.4497 9.94498 45.5165 9.89603C45.5832 9.85153 45.6411 9.75808 45.69 9.61568L45.8769 9.08168L44.6888 5.85765H45.4164L46.224 8.2473L47.0117 5.85765H47.7393Z" fill="white"/>
<path d="M50.988 8.26065C50.988 8.56325 50.8612 8.81022 50.6075 9.00157C50.3583 9.18848 50.0557 9.28192 49.6997 9.28192C49.1079 9.28192 48.634 9.1195 48.278 8.79465L48.6851 8.36077C48.9299 8.58772 49.2369 8.7012 49.6063 8.7012C49.7932 8.7012 49.9578 8.65892 50.1002 8.57437C50.2471 8.48537 50.3205 8.36745 50.3205 8.2206C50.3205 7.918 50.1247 7.7667 49.7331 7.7667H49.2258V7.25272H49.7264C49.8911 7.25272 50.0224 7.21267 50.1203 7.13257C50.2182 7.05247 50.2671 6.94122 50.2671 6.79882C50.2671 6.66087 50.207 6.5563 50.0869 6.4851C49.9712 6.40945 49.811 6.37162 49.6063 6.37162C49.3081 6.37162 49.0367 6.4584 48.7919 6.63195L48.4115 6.19807C48.7408 5.94442 49.1769 5.8176 49.7198 5.8176C50.0624 5.8176 50.3494 5.89992 50.5808 6.06457C50.8167 6.22477 50.9346 6.44727 50.9346 6.73207C50.9346 6.89672 50.8901 7.0458 50.8011 7.1793C50.7121 7.3128 50.592 7.4107 50.4407 7.473C50.6053 7.5353 50.7366 7.63765 50.8345 7.78005C50.9368 7.918 50.988 8.0782 50.988 8.26065Z" fill="white"/>
<path d="M55.0682 9.24187H54.3873V6.9123L52.9388 9.24187H52.258V5.85765H52.9388V8.15385L54.3873 5.85765H55.0682V9.24187Z" fill="white"/>
<path d="M58.8062 6.45172H57.7716V9.24187H57.0907V6.45172H56.0161V5.85765H58.8062V6.45172Z" fill="white"/>
<path d="M62.3687 7.75335H60.1793C60.1927 8.38525 60.4886 8.7012 61.0671 8.7012C61.3519 8.7012 61.6167 8.58327 61.8614 8.34742L62.2886 8.7546C62.0928 8.94595 61.9015 9.08167 61.7146 9.16177C61.5321 9.24187 61.3074 9.28192 61.0404 9.28192C60.5331 9.28192 60.1504 9.13507 59.8923 8.84137C59.6342 8.54322 59.5052 8.10712 59.5052 7.53307C59.5052 7.00352 59.632 6.58522 59.8856 6.27817C60.1437 5.97112 60.4953 5.8176 60.9403 5.8176C61.3764 5.8176 61.7235 5.96445 61.9816 6.25815C62.2397 6.55185 62.3687 6.9479 62.3687 7.4463V7.75335ZM61.7012 7.27275C61.6567 6.6809 61.4031 6.38497 60.9403 6.38497C60.6866 6.38497 60.4975 6.46952 60.3729 6.63862C60.2528 6.80327 60.1882 7.01465 60.1793 7.27275H61.7012Z" fill="white"/>
<path d="M68.2447 8.28735C68.2447 8.58105 68.1535 8.81467 67.9711 8.98822C67.7886 9.15732 67.5394 9.24187 67.2235 9.24187H65.548V5.85765H67.1701C67.4816 5.85765 67.7285 5.93997 67.911 6.10462C68.0979 6.26927 68.1913 6.48955 68.1913 6.76545C68.1913 7.10365 68.0334 7.34617 67.7174 7.49302C68.069 7.65322 68.2447 7.918 68.2447 8.28735ZM67.5238 6.81217C67.5238 6.67867 67.4793 6.57632 67.3903 6.50512C67.3058 6.42947 67.1834 6.39165 67.0232 6.39165H66.2222V7.24605H67.0232C67.357 7.24605 67.5238 7.10142 67.5238 6.81217ZM67.5772 8.24062C67.5772 8.09377 67.5305 7.9803 67.4371 7.9002C67.3481 7.81565 67.2235 7.77337 67.0633 7.77337H66.2222V8.71455H67.0633C67.2235 8.71455 67.3481 8.67227 67.4371 8.58772C67.5305 8.49872 67.5772 8.38302 67.5772 8.24062Z" fill="white"/>
<path fill-rule="evenodd" clip-rule="evenodd" d="M4.40744 0.770193C2.39547 0.770193 0.770193 2.38615 0.770193 4.37246V26.9286C0.770193 28.9149 2.39547 30.5309 4.40744 30.5309H91.5926C93.6045 30.5309 95.2298 28.9149 95.2298 26.9286V4.37246C95.2298 2.38615 93.6045 0.770193 91.5926 0.770193H4.40744ZM0 4.37246C0 1.95445 1.97646 0 4.40744 0H91.5926C94.0235 0 96 1.95445 96 4.37246V26.9286C96 29.3466 94.0235 31.3011 91.5926 31.3011H4.40744C1.97646 31.3011 0 29.3466 0 26.9286V4.37246Z" fill="#E8EAEC"/>
<path d="M32.8157 12.167L29.2432 22.5452H30.8785L31.9441 19.359H35.4017L36.4979 22.5452H38.1782L34.5912 12.167H32.8157ZM33.6621 13.8736C33.7825 14.3367 33.9137 14.8174 34.0809 15.3372L35.0441 18.0888H32.3054L33.2542 15.3195C33.398 14.8706 33.5345 14.3863 33.6621 13.8736Z" fill="white"/>
<path d="M42.8019 14.8594C41.7182 14.8594 40.8503 15.2727 40.2734 16.0569L40.2105 15.0244H38.7549L38.7639 15.1556C38.807 15.7978 38.825 16.5075 38.825 17.5222V25.5214H40.4154V21.7888C40.9096 22.3725 41.6967 22.7113 42.5898 22.7113C43.5189 22.7113 44.3761 22.3512 44.9997 21.7001C45.6969 20.9727 46.0635 19.9278 46.0635 18.6789C46.0635 17.5754 45.7437 16.621 45.1399 15.9203C44.5486 15.2372 43.7184 14.8594 42.8019 14.8594ZM42.4065 16.1598C43.8244 16.1598 44.4588 17.4566 44.4588 18.741C44.4588 20.3979 43.6483 21.4287 42.3454 21.4287C41.4559 21.4287 40.6867 20.8308 40.4711 19.9722C40.4333 19.8391 40.4154 19.6635 40.4154 19.463V18.1999C40.4154 18.0864 40.4405 17.9462 40.4657 17.8132C40.4729 17.7706 40.4819 17.728 40.4891 17.6854C40.7263 16.786 41.5134 16.1598 42.4065 16.1598Z" fill="white"/>
<path d="M50.9934 14.8594C49.9098 14.8594 49.0418 15.2727 48.465 16.0569L48.4021 15.0244H46.9482L46.9554 15.1556C46.9986 15.7996 47.0165 16.5075 47.0165 17.5222V25.5214H48.6069V21.7888C49.1011 22.3725 49.8882 22.7113 50.7814 22.7113C51.7105 22.7113 52.5677 22.3512 53.193 21.7001C53.8885 20.9727 54.2569 19.9278 54.2569 18.6789C54.2569 17.5754 53.937 16.621 53.3314 15.9203C52.7402 15.2372 51.9099 14.8594 50.9934 14.8594ZM50.5981 16.1598C52.016 16.1598 52.6503 17.4566 52.6503 18.741C52.6503 20.3979 51.8398 21.4287 50.537 21.4287C49.6474 21.4287 48.8765 20.8308 48.6626 19.9722C48.6249 19.8391 48.6069 19.6635 48.6069 19.463V18.1999C48.6069 18.0846 48.6321 17.9462 48.6572 17.8114C48.6644 17.7688 48.6734 17.7262 48.6806 17.6854C48.9178 16.786 49.7049 16.1598 50.5981 16.1598Z" fill="white"/>
<path d="M61.2566 16.5658C59.7722 15.9981 59.296 15.5528 59.296 14.7279C59.296 14.0342 59.8549 13.3335 61.1039 13.3335C62.1336 13.3335 62.7931 13.6865 62.971 13.7965L63.1058 13.8781L63.5551 12.5671L63.467 12.5156C63.201 12.3613 62.4409 12.0029 61.1506 12.0029C59.1217 12.0029 57.7056 13.1844 57.7056 14.8769C57.7056 16.2411 58.5934 17.1956 60.4983 17.8786C61.8478 18.3771 62.351 18.8862 62.351 19.7608C62.351 20.7508 61.5765 21.3646 60.3293 21.3646C59.5171 21.3646 58.6814 21.1304 58.0363 20.7224L57.8979 20.6354L57.4702 21.9766L57.5493 22.0281C58.1495 22.4237 59.2799 22.7111 60.2377 22.7111C62.971 22.7111 63.9414 21.0648 63.9414 19.6562C63.9396 18.205 63.1615 17.3091 61.2566 16.5658Z" fill="white"/>
<path d="M66.8009 13.2354L65.2411 13.7197V15.0236H64.0981V16.2778H65.2411V20.1222C65.2411 21.0518 65.4208 21.7029 65.791 22.1145C66.1468 22.4994 66.6931 22.7105 67.3293 22.7105C67.9313 22.7105 68.3572 22.5935 68.5585 22.5225L68.6483 22.4906L68.5728 21.2328L68.4201 21.2789C68.2188 21.3392 68.0122 21.364 67.6797 21.364C67.0633 21.364 66.8009 20.9791 66.8009 20.0761V16.2796H68.7202V15.0254H66.8009V13.2354Z" fill="white"/>
<path d="M72.662 14.8594C70.4373 14.8594 68.8828 16.4986 68.8828 18.8457C68.8828 21.1218 70.387 22.7131 72.5416 22.7131H72.556C74.3764 22.7131 76.3352 21.4606 76.3352 18.7108C76.3352 17.5932 75.9848 16.6334 75.3217 15.9327C74.655 15.2319 73.7349 14.8594 72.662 14.8594ZM72.6171 16.0994C74.0476 16.0994 74.6999 17.4761 74.6999 18.757C74.6999 20.3305 73.8104 21.473 72.5866 21.473H72.5704C71.3646 21.473 70.4876 20.35 70.4876 18.8013C70.4894 17.4566 71.1471 16.0994 72.6171 16.0994Z" fill="white"/>
<path d="M81.2079 14.9321L81.1127 14.909C80.9725 14.8753 80.8575 14.8594 80.7173 14.8594C79.8853 14.8594 79.1377 15.3437 78.7226 16.1243L78.6759 15.0261H77.249L77.258 15.1574C77.3011 15.7783 77.3173 16.4773 77.3173 17.4193L77.3029 22.5499H78.8933V18.5476C78.8933 18.3294 78.9077 18.1236 78.9365 17.9391C79.1162 16.9776 79.7721 16.3567 80.6095 16.3567C80.7731 16.3567 80.9006 16.3691 81.0372 16.3833L81.2079 16.401V14.9321Z" fill="white"/>
<path d="M84.7839 14.8447C82.667 14.8447 81.188 16.5141 81.188 18.9073C81.188 21.21 82.6598 22.6984 84.9367 22.6984C86.1335 22.6984 86.9673 22.4394 87.4543 22.2212L87.5496 22.1786L87.2441 21.0078L87.1111 21.061C86.678 21.2348 86.1011 21.4122 85.1182 21.4122C84.4263 21.4122 82.8341 21.1869 82.7353 19.1361L87.8695 19.1521L87.891 19.051C87.9234 18.8913 87.9395 18.6767 87.9395 18.3964C87.9395 16.7571 87.1129 14.8447 84.7839 14.8447ZM84.6779 16.0387C85.1631 16.0387 85.5548 16.1859 85.846 16.4786C86.3042 16.9381 86.3833 17.6158 86.3941 17.9404H82.7658C82.915 17.0339 83.4882 16.0387 84.6779 16.0387Z" fill="white"/>
</svg>
