<svg width="283" height="368" viewBox="0 0 283 368" fill="none" xmlns="http://www.w3.org/2000/svg">
<path d="M261.892 367.998C273 367.998 282.004 366.946 282.004 365.648C282.004 364.35 273 363.298 261.892 363.298C250.785 363.298 241.781 364.35 241.781 365.648C241.781 366.946 250.785 367.998 261.892 367.998Z" fill="#BEBDBD"/>
<path d="M233 350.428C233 351.443 225.824 352.267 216.973 352.267C208.122 352.267 200.946 351.443 200.946 350.428C200.946 349.413 208.122 348.588 216.973 348.588C225.824 348.588 233 349.413 233 350.428Z" fill="#BEBDBD"/>
<path d="M171.54 358.601C178.531 358.601 184.198 357.778 184.198 356.762C184.198 355.746 178.531 354.922 171.54 354.922C164.549 354.922 158.882 355.746 158.882 356.762C158.882 357.778 164.549 358.601 171.54 358.601Z" fill="#BEBDBD"/>
<path d="M160.383 349.407C160.383 350.422 153.373 351.246 144.727 351.246C136.081 351.246 129.072 350.422 129.072 349.407C129.072 348.392 136.081 347.567 144.727 347.567C153.373 347.567 160.383 348.392 160.383 349.407Z" fill="#BEBDBD"/>
<path d="M239.179 348.383C245.013 348.383 249.742 347.743 249.742 346.954C249.742 346.165 245.013 345.526 239.179 345.526C233.345 345.526 228.616 346.165 228.616 346.954C228.616 347.743 233.345 348.383 239.179 348.383Z" fill="#BEBDBD"/>
<path d="M190.812 351.899C203.498 351.899 213.782 350.962 213.782 349.805C213.782 348.649 203.498 347.712 190.812 347.712C178.126 347.712 167.842 348.649 167.842 349.805C167.842 350.962 178.126 351.899 190.812 351.899Z" fill="#93918E"/>
<path d="M209.088 349.806C209.088 350.727 200.907 351.473 190.815 351.473C180.723 351.473 172.542 350.727 172.542 349.806C172.542 348.884 180.723 348.138 190.815 348.138C200.907 348.138 209.088 348.887 209.088 349.806Z" fill="#411E2F"/>
<path d="M224.438 120.831C218.458 124.462 212.442 128.111 205.945 130.712C186.009 138.695 163.259 136.224 143.052 143.914C139.538 145.252 136.232 147.104 133.241 149.384C131.303 150.862 129.096 152.825 128.863 155.368C128.731 156.824 129.274 158.274 129.935 159.555C130.874 161.376 132.16 163.01 133.693 164.366C138.451 168.574 144.38 170.314 150.131 172.383C155.99 174.488 161.72 176.959 167.274 179.774C170.797 181.559 174.299 183.516 177.116 186.286C177.698 186.857 178.299 187.636 178.888 188.543C181.357 192.361 182.562 196.861 182.562 201.41V349.76H198.631V211.133C198.631 200.96 202.31 191.113 209.063 183.51C214.546 177.336 220.459 171.353 224.396 165.034C232.607 151.861 232.622 134.019 224.438 120.831Z" fill="#7CC6ED"/>
<path d="M224.438 120.831C218.458 124.462 212.441 128.111 205.945 130.712C201.435 132.518 196.774 133.774 192.037 134.747L199.711 152.233C202.718 159.089 202.301 166.964 198.582 173.461L198.44 173.712C194.247 181.037 191.026 190.349 191.026 198.788L191.071 349.757H198.63V211.133C198.63 200.96 202.31 191.113 209.063 183.51C214.548 177.336 220.459 171.35 224.396 165.034C232.607 151.861 232.622 134.019 224.438 120.831Z" fill="#38529C"/>
<path d="M197.158 200.89C197.139 200.89 197.121 200.887 197.103 200.884C196.989 200.854 196.922 200.736 196.952 200.622C199.443 191.231 205.921 183.568 212.188 176.155C213.027 175.162 213.867 174.174 214.691 173.18C221.471 165.04 228.345 155.217 227.946 144.092C227.943 143.975 228.034 143.875 228.151 143.869C228.275 143.86 228.369 143.956 228.375 144.074C228.779 155.341 221.851 165.248 215.02 173.452C214.193 174.446 213.356 175.436 212.514 176.43C206.277 183.803 199.829 191.43 197.366 200.727C197.339 200.827 197.251 200.89 197.158 200.89Z" fill="#5493AF"/>
<path d="M214.769 172.437C214.721 172.437 214.669 172.419 214.63 172.386C214.539 172.307 214.53 172.174 214.609 172.084C220.151 165.662 222.745 157.075 225.036 149.496C225.069 149.384 225.187 149.315 225.304 149.354C225.416 149.387 225.483 149.508 225.446 149.623C223.146 157.241 220.538 165.876 214.935 172.365C214.887 172.413 214.826 172.437 214.769 172.437Z" fill="#5493AF"/>
<path d="M195.395 205.279C195.292 205.279 195.201 205.207 195.183 205.101C194.676 202.216 195.162 198.966 196.59 195.701C197.915 192.678 199.889 189.935 201.64 187.603C205.23 182.819 209.097 178.164 213.139 173.766C213.22 173.678 213.356 173.672 213.441 173.754C213.528 173.836 213.534 173.971 213.453 174.056C209.423 178.442 205.562 183.087 201.982 187.86C200.246 190.174 198.287 192.889 196.982 195.87C195.588 199.057 195.111 202.222 195.606 205.023C195.627 205.14 195.548 205.252 195.431 205.27C195.419 205.279 195.407 205.279 195.395 205.279Z" fill="#5493AF"/>
<path d="M193.755 207.173C193.65 207.173 193.556 207.092 193.541 206.983C193.028 202.666 193.979 197.97 196.291 193.399C198.118 189.79 200.674 186.334 204.59 182.193C204.671 182.106 204.807 182.103 204.892 182.184C204.979 182.266 204.982 182.402 204.901 182.486C201.016 186.597 198.48 190.023 196.675 193.593C194.401 198.087 193.466 202.7 193.97 206.931C193.985 207.049 193.9 207.155 193.783 207.17C193.771 207.173 193.764 207.173 193.755 207.173Z" fill="#5493AF"/>
<path d="M205.405 181.133C205.357 181.133 205.305 181.115 205.266 181.082C205.175 181.006 205.166 180.87 205.242 180.78L208.116 177.415C209.652 175.615 211.24 173.757 212.556 171.748C215.98 166.535 217.875 159.971 218.183 152.236C218.189 152.118 218.298 152.03 218.407 152.03C218.525 152.036 218.618 152.136 218.612 152.254C218.298 160.068 216.381 166.707 212.913 171.987C211.581 174.017 209.981 175.887 208.439 177.696L205.565 181.061C205.526 181.106 205.465 181.133 205.405 181.133Z" fill="#5493AF"/>
<path d="M192.756 201.038C192.641 201.038 192.545 200.945 192.542 200.83C192.433 196.272 192.94 192.448 194.087 189.138C195.014 186.464 196.424 183.96 197.788 181.538C198.957 179.466 200.161 177.321 201.055 175.089C203.935 167.885 203.545 159.772 202.881 153.507C202.869 153.39 202.954 153.284 203.071 153.272C203.201 153.251 203.295 153.344 203.307 153.462C203.977 159.775 204.369 167.958 201.453 175.249C200.551 177.509 199.337 179.665 198.163 181.752C196.81 184.157 195.41 186.646 194.495 189.283C193.363 192.545 192.865 196.32 192.97 200.824C192.973 200.942 192.88 201.041 192.762 201.044C192.759 201.038 192.756 201.038 192.756 201.038Z" fill="#5493AF"/>
<path d="M197.191 187.084C197.176 187.084 197.164 187.084 197.148 187.081C197.034 187.056 196.958 186.945 196.979 186.827C197.363 184.885 198.401 183.16 199.403 181.493C199.633 181.109 199.862 180.728 200.083 180.345C204.572 172.567 205.963 163.091 203.901 154.347C203.874 154.232 203.947 154.118 204.061 154.09C204.179 154.066 204.291 154.136 204.318 154.25C206.404 163.098 204.997 172.688 200.454 180.559C200.231 180.946 200.001 181.329 199.772 181.713C198.788 183.35 197.77 185.045 197.402 186.911C197.381 187.014 197.29 187.084 197.191 187.084Z" fill="#5493AF"/>
<path d="M205.716 172.081C205.697 172.081 205.676 172.078 205.658 172.072C205.544 172.038 205.477 171.92 205.51 171.806C206.331 168.894 206.802 165.825 206.914 162.687C206.968 161.189 206.938 159.678 206.911 158.219L206.848 154.867C206.845 154.749 206.938 154.649 207.059 154.649C207.195 154.643 207.276 154.743 207.276 154.861L207.34 158.213C207.367 159.678 207.397 161.195 207.343 162.705C207.231 165.876 206.754 168.979 205.924 171.924C205.894 172.02 205.809 172.081 205.716 172.081Z" fill="#5493AF"/>
<path d="M193.9 195.819C193.873 195.819 193.849 195.813 193.822 195.804C193.71 195.762 193.659 195.638 193.701 195.526C196.092 189.455 200.164 184.196 204.101 179.109C205.996 176.66 207.959 174.126 209.707 171.534C213.812 165.451 215.186 160.367 213.912 155.996C213.879 155.882 213.945 155.764 214.057 155.73C214.171 155.697 214.289 155.764 214.322 155.875C215.635 160.379 214.241 165.577 210.06 171.776C208.303 174.379 206.338 176.919 204.436 179.375C200.517 184.438 196.466 189.672 194.096 195.686C194.066 195.768 193.985 195.819 193.9 195.819Z" fill="#5493AF"/>
<path d="M200.919 181.719C200.874 181.719 200.828 181.707 200.792 181.677C200.695 181.607 200.677 181.471 200.747 181.378L206.147 174.05C207.358 172.407 208.611 170.706 209.571 168.873C211.777 164.665 212.448 159.591 211.406 154.951C211.379 154.836 211.451 154.722 211.569 154.694C211.687 154.67 211.799 154.743 211.826 154.858C212.888 159.594 212.206 164.774 209.951 169.072C208.976 170.933 207.714 172.648 206.492 174.304L201.091 181.631C201.049 181.689 200.985 181.719 200.919 181.719Z" fill="#5493AF"/>
<path d="M208.061 170.344C208.031 170.344 208.001 170.338 207.971 170.326C207.862 170.277 207.817 170.148 207.865 170.042C209.405 166.695 210.129 162.98 209.966 159.298C209.945 158.851 209.915 158.404 209.882 157.957C209.815 157.038 209.746 156.093 209.791 155.154C209.797 155.036 209.903 154.945 210.015 154.948C210.132 154.954 210.226 155.054 210.22 155.172C210.175 156.084 210.244 157.02 210.31 157.923C210.344 158.374 210.377 158.824 210.398 159.277C210.567 163.025 209.827 166.807 208.261 170.217C208.221 170.296 208.143 170.344 208.061 170.344Z" fill="#5493AF"/>
<path d="M190.664 152.009C198.691 152.967 206.205 156.969 214.286 157.265C222.364 157.561 231.789 151.568 230.433 143.594C238.539 145.579 247.722 141.727 251.991 134.551C256.259 127.377 255.266 117.463 249.66 111.277C254.861 99.0896 245.88 83.1533 232.764 81.3017C233.86 72.216 230.313 62.6922 223.544 56.5394C216.776 50.3866 206.962 47.7618 198.03 49.7221C199.415 37.2684 190.727 24.4554 178.649 21.1418C174.42 19.982 169.946 19.8823 165.744 18.6257C158.834 16.5627 153.24 11.5849 147.03 7.91797C141.494 4.64975 135.366 2.38738 129.035 1.27582C122.958 0.209578 116.513 0.239783 110.847 2.67131C105.181 5.10283 100.447 10.2679 99.7229 16.3936C88.2153 10.0776 73.8187 9.32251 61.7164 14.4C55.3648 17.0641 49.0012 22.5857 49.6714 29.4453C41.3064 28.6297 32.6394 32.0973 27.1392 38.4585C21.642 44.8167 19.4594 53.8995 21.4699 62.064C12.9811 62.9308 5.20468 68.8601 2.11948 76.8223C-0.965724 84.7813 0.785172 94.4078 6.47257 100.772C8.49515 103.037 10.9947 104.952 12.3954 107.647C13.778 110.305 13.926 113.404 14.418 116.361C16.0814 126.356 22.1763 135.526 30.7436 140.927C39.3109 146.328 50.2088 147.871 59.9353 145.059C59.4432 159.056 68.572 172.884 81.6343 177.919C94.6966 182.955 110.738 178.838 119.762 168.13C122.753 171.821 127.915 173.201 132.64 172.706C137.364 172.211 141.756 170.105 145.938 167.852C160.117 160.21 174.676 150.1 190.664 152.009Z" fill="url(#paint0_linear)"/>
<path d="M120.613 15.8468C124.803 12.784 129.838 10.9536 134.985 10.2951C140.132 9.63664 145.397 10.135 150.42 11.4339C147.891 9.71215 145.267 8.03274 142.327 7.18397C138.351 6.03617 133.992 6.51039 130.198 8.15658C126.403 9.80881 123.152 12.5786 120.613 15.8468Z" fill="#7A2B88"/>
<path d="M93.3649 180.668C89.1808 180.668 85.1598 179.934 81.4165 178.494C68.3723 173.464 59.1861 159.839 59.3069 145.869C56.3304 146.654 53.2301 147.05 50.0785 147.05C43.1322 147.05 36.1498 145.059 30.4171 141.444C21.7109 135.955 15.5043 126.616 13.8138 116.461C13.7051 115.809 13.6115 115.147 13.521 114.489C13.207 112.238 12.884 109.912 11.8516 107.931C10.9218 106.146 9.49389 104.723 7.98148 103.219C7.32338 102.567 6.64416 101.89 6.01323 101.183C0.174894 94.6497 -1.61826 84.7726 1.54542 76.6021C4.62761 68.649 12.2742 62.6684 20.7147 61.5387C18.9306 53.344 21.1826 44.4093 26.6738 38.0601C32.1137 31.7684 40.6387 28.1981 49.0128 28.7811C48.7955 21.7191 55.5002 16.3456 61.4774 13.8385C66.7573 11.6245 72.6681 10.4525 78.5728 10.4525C85.8571 10.4525 92.9845 12.1772 99.2455 15.4454C100.266 9.83633 104.637 4.6682 110.605 2.10982C115.725 -0.0891285 122.031 -0.572413 129.137 0.675065C135.58 1.80776 141.705 4.06712 147.338 7.39272C149.294 8.54656 151.211 9.84539 153.067 11.1019C157.091 13.8295 161.254 16.6476 165.918 18.0401C168.071 18.6835 170.353 19.0278 172.56 19.357C174.622 19.6681 176.75 19.9883 178.809 20.5532C190.89 23.8667 199.665 36.4895 198.714 48.9582C200.435 48.635 202.207 48.4719 203.988 48.4719C211.354 48.4719 218.632 51.2478 223.955 56.0867C230.738 62.2546 234.336 71.6696 233.437 80.7885C239.559 81.8578 245.198 86.0563 248.615 92.1155C252.069 98.2411 252.715 105.33 250.372 111.16C255.887 117.515 256.823 127.631 252.518 134.865C248.953 140.855 241.998 144.724 234.798 144.724C233.56 144.724 232.335 144.606 231.148 144.377C231.357 147.017 230.472 149.581 228.567 151.837C225.349 155.652 219.656 158.066 214.264 157.875C209.757 157.712 205.386 156.401 201.16 155.136C197.724 154.106 194.168 153.043 190.594 152.617C189.311 152.463 187.995 152.387 186.685 152.387C174.76 152.387 163.509 158.721 152.627 164.844C150.486 166.049 148.358 167.245 146.239 168.39C142.333 170.495 137.744 172.788 132.715 173.316C132.078 173.383 131.432 173.416 130.789 173.416C126.297 173.416 122.33 171.839 119.773 169.066C113.343 176.346 103.532 180.668 93.3649 180.668ZM59.9378 144.446C60.0737 144.446 60.2065 144.491 60.3152 144.576C60.4691 144.697 60.5567 144.884 60.5506 145.08C60.0676 158.83 69.0274 172.401 81.8572 177.349C85.4617 178.738 89.3318 179.442 93.3649 179.442C103.423 179.442 113.117 175.065 119.296 167.737C119.414 167.599 119.544 167.544 119.77 167.52C119.951 167.523 120.126 167.605 120.241 167.747C122.532 170.571 126.372 172.193 130.783 172.193C131.38 172.193 131.987 172.163 132.579 172.099C137.385 171.595 141.847 169.363 145.65 167.315C147.763 166.176 149.886 164.98 152.02 163.781C163.038 157.579 174.434 151.167 186.679 151.167C188.037 151.167 189.402 151.248 190.733 151.405C194.413 151.846 198.02 152.925 201.504 153.967C205.658 155.211 209.953 156.495 214.304 156.655C219.269 156.83 224.685 154.538 227.625 151.052C229.503 148.826 230.264 146.286 229.823 143.7C229.79 143.498 229.859 143.289 230.01 143.15C230.161 143.008 230.373 142.954 230.572 143.002C231.93 143.335 233.352 143.504 234.792 143.504C241.569 143.504 248.111 139.867 251.459 134.243C255.567 127.341 254.595 117.645 249.201 111.695C249.041 111.516 248.995 111.263 249.092 111.042C251.459 105.493 250.882 98.6429 247.543 92.7196C244.205 86.7964 238.647 82.7549 232.676 81.9122C232.347 81.8669 232.114 81.5618 232.154 81.2326C233.228 72.319 229.769 63.0339 223.13 56.9958C218.029 52.3593 211.052 49.6982 203.988 49.6982C202.008 49.6982 200.049 49.9067 198.159 50.3205C197.966 50.3628 197.767 50.3084 197.619 50.1785C197.471 50.0456 197.398 49.8523 197.419 49.6559C198.775 37.4953 190.28 24.9692 178.486 21.7372C176.499 21.1905 174.404 20.8764 172.379 20.5713C170.13 20.233 167.802 19.8826 165.568 19.2151C160.726 17.7682 156.485 14.8957 152.382 12.1168C150.541 10.8724 148.639 9.58562 146.716 8.4499C141.207 5.1968 135.22 2.98879 128.926 1.88328C122.058 0.675065 115.988 1.13419 111.091 3.23647C105.208 5.76163 100.987 10.9569 100.335 16.4694C100.311 16.6718 100.187 16.85 100.006 16.9436C99.8251 17.0373 99.6107 17.0342 99.4326 16.9376C93.1686 13.5002 85.9568 11.6819 78.5758 11.6819C72.8341 11.6819 67.0863 12.8176 61.9544 14.9712C56.1583 17.4028 49.6226 22.6373 50.2807 29.3912C50.2988 29.5725 50.2354 29.7537 50.1056 29.8836C49.9758 30.0135 49.7947 30.0799 49.6136 30.0588C48.8317 29.9832 48.0347 29.944 47.2438 29.944C39.7753 29.944 32.4337 33.2786 27.6066 38.8606C22.2181 45.0889 20.0959 53.924 22.0641 61.9193C22.1064 62.0915 22.0732 62.2727 21.9705 62.4177C21.8679 62.5627 21.7079 62.6563 21.5328 62.6744C13.2674 63.5172 5.69626 69.2924 2.69256 77.0431C-0.31113 84.7938 1.39147 94.1665 6.93094 100.365C7.53772 101.041 8.20487 101.706 8.84787 102.346C10.3603 103.85 11.924 105.406 12.9413 107.363C14.0704 109.532 14.4085 111.966 14.7375 114.319C14.8281 114.969 14.9187 115.618 15.0243 116.262C16.6605 126.078 22.6588 135.104 31.0722 140.408C36.6117 143.899 43.3617 145.824 50.0815 145.824C53.3991 145.824 56.6594 145.367 59.7688 144.467C59.8231 144.452 59.8805 144.446 59.9378 144.446Z" fill="#212121"/>
<path d="M59.8419 143.401C59.1596 143.473 58.5378 143.032 57.9974 142.609C55.1688 140.392 52.4458 137.979 50.39 135.031C48.3343 132.083 46.9818 128.543 47.1448 124.951C46.36 127.09 44.6664 128.815 42.6861 129.935C40.7058 131.056 38.4507 131.612 36.1897 131.883C32.7513 132.3 29.1951 132.074 25.953 130.863C22.7108 129.651 19.7977 127.401 18.1162 124.374C18.7562 127.289 20.7425 129.694 22.6897 131.953C24.3409 133.868 26.0164 135.774 27.9635 137.387C30.4208 139.423 33.2554 140.948 36.1625 142.259C40.5367 144.234 45.2219 145.772 50.0187 145.702C52.4519 145.666 54.8578 145.219 57.2366 144.724C58.2178 144.515 59.2924 144.234 59.8419 143.401Z" fill="#7A2B88"/>
<path d="M55.3076 30.5176C53.6805 29.6386 51.8059 29.2399 49.9704 29.3819C51.993 25.6545 56.1891 23.7788 60.186 22.489C63.5882 21.3895 67.099 20.5196 70.6702 20.4502C78.5644 20.2961 85.9664 24.0144 93.0062 27.642C90.0539 28.1012 87.2102 29.2731 84.78 31.0341C82.3288 27.5031 78.8421 24.6396 74.7728 23.374C70.7034 22.1084 66.0636 22.5494 62.5165 24.9356C60.506 26.2888 58.9121 28.1857 57.451 30.134C57.2185 30.4451 56.9589 30.7773 56.5846 30.874C56.1469 30.9888 55.7091 30.7351 55.3076 30.5176Z" fill="#7A2B88"/>
<path d="M131.152 43.7415C124.881 46.173 118.11 47.3027 111.394 47.0459C115.949 47.496 120.679 48.0004 124.583 50.3927C127.716 46.6261 131.909 43.7475 136.549 42.1768C134.668 42.2705 132.908 43.0618 131.152 43.7415Z" fill="#7A2B88"/>
<path d="M26.3725 60.4752C32.872 59.7532 38.9035 56.8777 45.089 54.7482C51.2745 52.6157 58.1423 51.2293 64.2764 53.5038C59.7422 53.1443 55.0631 52.9389 50.7674 54.4341C47.3652 55.6181 44.2317 58.1071 42.8129 61.336C42.1819 62.7708 40.582 63.4806 39.0726 63.0668C33.9678 61.6652 28.5823 61.2877 23.3356 61.9854L26.3725 60.4752Z" fill="#7A2B88"/>
<path d="M12.1659 90.4931C12.8029 93.2962 12.5252 95.5435 11.3388 98.1623C10.566 99.8658 10.4211 100.204 8.17511 100.817C11.3297 103.361 13.0112 104.804 14.095 111.749C14.8496 107.931 14.4693 105.674 14.5538 101.784C14.6414 97.8934 14.0225 93.9124 12.1659 90.4931Z" fill="#7A2B88"/>
<path d="M99.9343 100.539C102.805 100.739 105.67 101.249 108.547 101.083C113.03 100.826 117.821 99.002 121.793 101.095C113.975 100.742 106.093 104.662 101.652 111.111C98.8958 107.888 94.6182 106.031 90.3829 106.218C86.1475 106.405 82.051 108.634 79.5907 112.087C80.4209 109.861 81.5076 107.698 83.0895 105.925C87.1588 101.37 93.8424 100.117 99.9343 100.539Z" fill="#7A2B88"/>
<path d="M214.524 94.4229C217.368 93.8067 220.348 94.3323 223.098 95.2837C225.845 96.2352 228.429 97.6065 231.104 98.7483C236.039 100.86 239.526 102.249 244.869 102.76C246.189 102.886 248.534 102.735 249.515 101.841C249.705 105.303 249.868 108.538 248.238 111.598C245.035 109.695 241.724 108.281 238.162 107.191C234.599 106.1 230.72 105.771 227.155 106.855C226.174 100.6 220.788 95.3018 214.524 94.4229Z" fill="#7A2B88"/>
<path d="M209.042 79.6192C207.448 78.4684 206.02 76.9732 205.374 75.1126C204.731 73.264 204.916 71.2493 204.888 69.292C204.795 62.2633 201.77 55.3191 196.686 50.4681C200.565 51.0601 204.082 53.1926 206.932 55.893C207.714 56.636 208.457 57.4244 209.1 58.2913C212.725 63.1815 212.807 69.881 215.72 75.2274C217.739 78.9336 221.135 81.8695 225.093 83.3315C219.502 83.709 213.586 82.8995 209.042 79.6192Z" fill="#7A2B88"/>
<path d="M189.946 151.562C189.288 151.248 185.783 149.635 185.276 149.11C181.167 144.857 178.145 143.709 172.259 143.168C178.658 139.752 186.251 139.078 193.438 140.057C202.597 141.301 211.883 145.086 220.786 142.603C223.179 141.936 225.788 140.341 225.866 137.855C232.547 138.643 239.674 136.677 244.468 131.953C249.262 127.229 251.321 119.665 248.863 113.401C254.321 119.327 254.388 129.244 249.509 135.656C244.631 142.069 235.587 144.706 227.816 142.579C228.794 144.875 228.287 147.626 226.899 149.699C225.51 151.771 223.346 153.221 221.042 154.178C217.891 155.489 214.392 155.954 211.008 155.516C204.732 154.701 201.1 152.49 194.773 152.329C193.939 152.305 190.694 151.919 189.946 151.562Z" fill="#7A2B88"/>
<path d="M128.238 141.625C126.738 143.739 124.894 145.591 122.968 147.324C111.502 157.649 96.6559 164.152 81.2994 165.581C76.1644 166.058 70.8815 165.97 65.9881 164.33C71.4913 172.555 80.7771 178.128 90.6214 179.115C100.466 180.103 110.672 176.482 117.694 169.513C118.141 169.069 118.581 168.604 118.868 168.045C119.255 167.29 119.333 166.426 119.46 165.587C120.746 157.265 128.392 150.387 136.797 149.982C138.828 139.048 148.395 129.95 159.41 128.473C161.509 128.192 163.773 128.195 165.578 129.298C161.11 124.779 154.282 122.903 148.03 124.036C141.778 125.172 136.193 129.141 132.643 134.412C131.067 136.753 129.869 139.329 128.238 141.625Z" fill="#7A2B88"/>
<path d="M78.0151 128.437C77.3027 128.395 76.5902 128.374 75.8778 128.389C69.0764 128.534 62.2268 131.004 57.3726 135.771C56.3432 136.783 55.3923 137.909 54.8278 139.238C54.7372 139.453 54.6557 139.679 54.6859 139.912C54.7282 140.232 54.9697 140.483 55.2081 140.7C56.6964 142.066 58.4745 143.108 60.3884 143.754C61.2397 135.158 69.6047 129.053 78.0151 128.437Z" fill="#7A2B88"/>
<path d="M59.6515 108.314C57.9399 104.826 57.9429 100.772 57.9791 96.8847C57.9882 96.0208 57.9972 95.1479 58.2267 94.3142C56.8169 94.7039 55.6517 95.7127 54.737 96.8545C53.8223 97.9962 53.1129 99.286 52.2797 100.491C48.6813 105.702 42.6739 109.169 36.3646 109.677C36.8839 110.311 37.7321 110.553 38.5291 110.746C41.1434 111.377 43.7999 111.845 46.4745 112.144C45.0044 117.113 44.8142 122.777 47.519 127.196C46.9938 124.988 46.9726 122.68 47.2806 120.433C47.7183 117.243 48.8624 114.071 51.0269 111.691C53.1853 109.311 56.4697 107.828 59.6515 108.314Z" fill="#7A2B88"/>
<path d="M104.079 28.2552C106.594 30.9072 109.972 32.6259 113.489 33.6105C117.006 34.5952 120.68 34.8822 124.332 35C119.089 36.4045 113.498 36.48 108.221 35.2114C102.944 33.9458 97.9933 31.3391 93.9572 27.7084C96.7526 27.1919 99.6265 27.0922 102.449 27.4154C102.772 27.4517 103.101 27.497 103.385 27.651C103.654 27.7991 103.865 28.0316 104.079 28.2552Z" fill="#7A2B88"/>
<path d="M226.096 126.519C227.584 129.914 226.811 134.176 224.224 136.831C222.79 133.249 219.469 130.835 216.312 128.621C215.038 118.361 209.106 108.773 200.496 103.056C202.039 103.249 203.509 103.817 204.937 104.43C209.079 106.212 213.079 108.462 216.306 111.613C219.533 114.763 221.945 118.886 222.452 123.366C224.13 123.517 225.416 124.972 226.096 126.519Z" fill="#7A2B88"/>
<path d="M131.034 102.651C137.742 105.517 143.846 109.785 148.848 115.095C147.897 107.339 151.61 99.1893 158.088 94.8246C152.678 96.7577 147.885 100.376 144.54 105.049C139.103 102.766 133.192 100.437 127.463 101.835L131.034 102.651Z" fill="#7A2B88"/>
<path d="M161.934 64.278C164.739 62.6288 168.005 61.9885 171.036 60.8105C174.067 59.6325 177.092 57.645 178.097 54.5519C178.568 53.1081 178.55 51.5586 178.529 50.0423C178.483 46.7922 178.438 43.5421 178.396 40.292C178.378 38.9872 178.359 37.6702 178.103 36.3895C177.626 34.0154 176.31 31.8164 174.438 30.279C175.857 32.6199 176.159 35.6072 175.229 38.1837C174.302 40.7602 172.165 42.8685 169.578 43.7656C172.754 45.3907 174.194 49.5288 173.191 52.9571C172.189 56.3824 169.11 58.971 165.675 59.9285C162.236 60.886 158.514 60.3695 155.193 59.0616C154.741 64.4472 149.69 68.5037 144.428 69.7331C139.167 70.9625 133.678 70.0382 128.317 69.3646C122.956 68.694 117.289 68.3286 112.366 70.5547C114.699 72.3398 116.655 74.6143 118.077 77.1847C123.949 73.1886 131.626 73.696 138.693 73.0043C142.668 72.6147 146.605 71.7991 150.409 70.5728C152.926 69.7603 155.405 68.7605 157.611 67.3046C159.082 66.335 160.419 65.1721 161.934 64.278Z" fill="#7A2B88"/>
<path d="M121.277 35.7098C117.313 35.7098 113.576 34.9305 110.328 33.4142C105.715 31.2576 102.108 27.5453 100.429 23.229C98.5878 18.4898 99.1614 13.1374 101.924 9.25904C102.117 8.9872 102.497 8.92377 102.769 9.11406C103.044 9.30737 103.107 9.68192 102.914 9.95377C100.381 13.5059 99.8647 18.4294 101.558 22.7971C103.125 26.8264 106.506 30.3 110.841 32.3238C114.747 34.1482 119.414 34.8459 124.335 34.3476C124.673 34.3143 124.966 34.5529 125.002 34.8852C125.035 35.2175 124.794 35.5135 124.459 35.5467C123.39 35.6554 122.328 35.7098 121.277 35.7098Z" fill="#212121"/>
<path d="M113.226 70.6845C113.024 70.6845 112.824 70.5848 112.707 70.3975C112.526 70.1106 112.613 69.733 112.9 69.5518C117.612 66.5856 123.052 67.1897 128.32 67.7727L128.761 67.821C129.709 67.9268 130.659 68.0446 131.613 68.1654C136.048 68.7181 140.631 69.292 144.981 68.3587C149.959 67.2864 155.118 63.4171 155.35 58.0949C155.359 57.8865 155.471 57.6992 155.649 57.5935C155.827 57.4878 156.048 57.4818 156.232 57.5694C161.01 59.9254 166.864 59.282 170.154 56.041C171.95 54.2709 172.889 51.48 172.603 48.7555C172.355 46.4176 171.223 44.4452 169.493 43.3457C169.258 43.1947 169.152 42.9047 169.24 42.6389C169.327 42.3731 169.581 42.2009 169.864 42.219C172.062 42.3731 174.329 40.7571 175.235 38.383C176.017 36.3381 175.884 33.7736 174.861 31.1579C172.355 24.7392 166.127 20.5981 159.423 16.5778C159.133 16.4056 159.039 16.028 159.211 15.7381C159.386 15.4451 159.761 15.3545 160.05 15.5266C165.572 18.8371 173.137 23.3709 176.002 30.7108C177.134 33.6105 177.267 36.4891 176.379 38.8179C175.501 41.1165 173.541 42.8201 171.392 43.3094C172.729 44.6445 173.593 46.5112 173.816 48.6256C174.142 51.7126 173.067 54.8902 171.009 56.9139C167.486 60.3815 161.623 61.2061 156.488 59.0343C155.74 64.5136 150.396 68.4402 145.234 69.5518C140.685 70.5304 135.997 69.9445 131.459 69.3766C130.512 69.2588 129.567 69.141 128.625 69.0353L128.181 68.987C122.892 68.401 117.899 67.8452 113.549 70.5848C113.449 70.6543 113.338 70.6845 113.226 70.6845Z" fill="#212121"/>
<path d="M122.02 56.4004C121.95 56.4004 121.878 56.3884 121.808 56.3612C121.491 56.2434 121.328 55.89 121.446 55.5728C124.67 46.8465 133.415 40.5547 142.713 40.2738C143.06 40.298 143.335 40.5306 143.344 40.8689C143.353 41.2072 143.088 41.4881 142.75 41.5002C133.941 41.766 125.651 47.7285 122.596 55.9987C122.503 56.2494 122.267 56.4004 122.02 56.4004Z" fill="#212121"/>
<path d="M93.8303 54.8449C93.6612 54.8449 93.4922 54.7754 93.3714 54.6395C93.148 54.3858 93.1691 53.9991 93.4227 53.7756C101.721 46.4146 114.494 44.6476 124.477 49.4774C124.782 49.6254 124.909 49.9909 124.761 50.296C124.613 50.6011 124.251 50.7279 123.943 50.5799C114.391 45.9585 102.174 47.647 94.2348 54.6908C94.1201 54.7966 93.9752 54.8449 93.8303 54.8449Z" fill="#212121"/>
<path d="M204.819 72.9409C204.804 72.9409 204.789 72.9409 204.774 72.9379C204.436 72.9137 204.182 72.6207 204.206 72.2824C204.659 65.9574 202.926 59.6052 199.446 54.854C195.717 49.7644 189.958 46.4508 184.032 45.9917C183.694 45.9645 183.443 45.6715 183.467 45.3332C183.494 44.9949 183.781 44.7442 184.125 44.7684C190.401 45.2547 196.496 48.7525 200.433 54.129C204.079 59.1129 205.9 65.7611 205.426 72.37C205.408 72.6962 205.136 72.9409 204.819 72.9409Z" fill="#212121"/>
<path d="M148.51 116.098C148.208 116.098 147.945 115.875 147.903 115.567C147.16 110.078 148.458 104.267 151.468 99.6212C154.478 94.9756 159.25 91.4144 164.561 89.8558C166.68 89.2336 168.391 89.0856 169.943 89.3967C170.275 89.4632 170.489 89.7864 170.423 90.1186C170.357 90.4509 170.034 90.6654 169.702 90.5989C168.349 90.3271 166.825 90.466 164.905 91.0308C159.872 92.5109 155.347 95.8848 152.494 100.289C149.642 104.693 148.41 110.202 149.113 115.403C149.159 115.739 148.923 116.047 148.588 116.092C148.564 116.095 148.537 116.098 148.51 116.098Z" fill="#212121"/>
<path d="M60.3067 151.683C60.3037 151.683 60.3006 151.683 60.2976 151.683C59.9595 151.701 59.6697 151.444 59.6516 151.106C59.5067 148.514 59.3588 145.835 59.8146 143.198C60.8138 137.423 64.7896 132.297 70.1932 129.817C75.458 127.401 81.9544 127.621 87.1498 130.397C87.4486 130.557 87.5603 130.929 87.4003 131.228C87.2403 131.527 86.872 131.639 86.5702 131.479C81.7069 128.881 75.627 128.673 70.7004 130.932C65.659 133.246 61.9489 138.027 61.0161 143.407C60.5844 145.908 60.7293 148.517 60.8712 151.04C60.8923 151.372 60.6387 151.659 60.3067 151.683Z" fill="#212121"/>
<path d="M11.7856 65.6916C11.5592 65.6916 11.3389 65.5647 11.2332 65.3442C11.0853 65.0391 11.2151 64.6737 11.52 64.5257C20.528 60.1761 31.4681 59.5599 40.923 62.8402C42.1305 59.0343 45.5598 55.7933 50.0367 54.2861C54.426 52.809 59.1564 53.0265 63.2016 53.4343C64.1073 53.5249 64.8529 53.6004 65.5744 53.5007C65.9065 53.4494 66.2204 53.688 66.2657 54.0233C66.314 54.3586 66.0785 54.6697 65.7434 54.715C64.877 54.8388 64.0197 54.7512 63.1926 54.6667C59.1595 54.2589 54.592 54.0444 50.4231 55.449C46.0851 56.9079 42.8278 60.1036 41.9222 63.7856C41.8799 63.9548 41.7682 64.0967 41.6143 64.1813C41.4603 64.2629 41.2792 64.275 41.1162 64.2145C31.8243 60.7983 20.9597 61.3299 12.0453 65.6312C11.9637 65.6735 11.8732 65.6916 11.7856 65.6916Z" fill="#212121"/>
<path d="M216.438 128.908C216.109 128.908 215.834 128.645 215.825 128.313C215.644 121.731 212.586 115.186 206.983 109.387C204.74 107.064 202.196 105.055 199.418 103.412C199.125 103.24 199.032 102.865 199.204 102.572C199.376 102.282 199.753 102.186 200.043 102.358C202.914 104.055 205.546 106.133 207.865 108.535C213.685 114.561 216.861 121.387 217.051 128.28C217.06 128.618 216.794 128.899 216.456 128.908C216.447 128.908 216.444 128.908 216.438 128.908Z" fill="#212121"/>
<path d="M252.54 116.355C252.344 116.355 252.148 116.258 252.03 116.083C246.738 108.19 236.275 104.379 227.152 107.009C226.974 107.061 226.778 107.028 226.624 106.919C226.47 106.81 226.376 106.635 226.37 106.448C226.117 100.416 220.601 94.9243 214.57 94.6947C214.232 94.6826 213.969 94.3987 213.981 94.0604C213.993 93.7221 214.283 93.4291 214.615 93.4714C221.108 93.7191 226.856 99.2104 227.535 105.638C236.981 103.258 247.604 107.287 253.044 115.4C253.231 115.681 253.159 116.062 252.878 116.252C252.775 116.322 252.658 116.355 252.54 116.355Z" fill="#212121"/>
<path d="M15.1154 119.919C14.8377 119.919 14.5871 119.729 14.5207 119.448C13.2377 114.053 13.3705 108.193 13.6332 103.69C13.8928 99.2104 13.8052 93.5197 10.7955 89.2215C10.6023 88.9436 10.6687 88.563 10.9464 88.3667C11.2242 88.1733 11.6045 88.2398 11.8008 88.5177C15.0278 93.124 15.1305 99.0835 14.8588 103.762C14.6022 108.181 14.4694 113.926 15.7161 119.167C15.7946 119.496 15.5924 119.825 15.2633 119.904C15.209 119.916 15.1637 119.919 15.1154 119.919Z" fill="#212121"/>
<path d="M59.5216 143.917C59.4341 143.917 59.3465 143.899 59.262 143.86C53.9218 141.341 49.7468 136.701 47.7997 131.125C45.8556 125.549 46.2359 119.315 48.8502 114.02C50.6494 110.371 54.278 106.925 58.3141 107.339C56.3821 101.071 56.7051 94.743 59.2348 89.8377C62.3744 83.7513 69.0429 80.1811 75.1046 81.347C75.4367 81.4104 75.654 81.7336 75.5906 82.0659C75.5272 82.3982 75.2103 82.6156 74.8722 82.5522C69.4293 81.501 63.1713 84.878 60.3216 90.3995C57.81 95.2656 57.6168 101.654 59.7933 107.928C59.8688 108.142 59.8175 108.381 59.6635 108.547C59.5095 108.713 59.2771 108.779 59.0537 108.719C55.4523 107.743 51.7422 110.921 49.943 114.564C47.4766 119.566 47.1144 125.456 48.9528 130.721C50.7913 135.988 54.7368 140.371 59.7812 142.751C60.0861 142.896 60.219 143.262 60.0741 143.567C59.9714 143.787 59.751 143.917 59.5216 143.917Z" fill="#212121"/>
<path d="M26.7377 106.254C26.7045 106.254 26.6713 106.251 26.6351 106.245C26.303 106.188 26.0766 105.874 26.1339 105.538C27.1603 99.4339 31.5074 93.9335 37.2069 91.5262C44.3071 88.5268 52.2012 90.3874 57.5746 92.4716C57.8131 92.5652 57.9882 92.6407 58.1663 92.7193C58.3052 92.7797 58.4471 92.8431 58.6342 92.9186C58.9482 93.0455 59.0991 93.4019 58.9723 93.716C58.8455 94.0302 58.4893 94.1782 58.1754 94.0544C57.9761 93.9728 57.8222 93.9063 57.6742 93.8399C57.5112 93.7674 57.3512 93.6979 57.1309 93.6134C51.9687 91.6077 44.4067 89.8135 37.6838 92.6528C32.3617 94.9001 28.3014 100.038 27.3445 105.741C27.2901 106.043 27.0305 106.254 26.7377 106.254Z" fill="#212121"/>
<path d="M78.5552 38.1685C78.4405 38.1685 78.3228 38.1353 78.2202 38.0688C77.9364 37.8846 77.8579 37.504 78.0421 37.2201C83.5423 28.8139 94.1382 24.6818 103.804 27.1647C104.13 27.2493 104.33 27.5846 104.245 27.9108C104.161 28.24 103.826 28.4394 103.499 28.3518C94.3284 25.9928 84.2819 29.9194 79.0654 37.8906C78.9507 38.0688 78.7545 38.1685 78.5552 38.1685Z" fill="#212121"/>
<path d="M39.2174 43.4212C38.9185 43.4212 38.6559 43.2007 38.6106 42.8956C37.9767 38.4283 40.0717 33.7434 43.8271 31.2424C47.4044 28.8592 52.2223 28.6297 56.02 30.6051C58.8727 25.4037 64.6416 21.903 70.5766 21.8305C76.6926 21.7912 82.7875 25.3584 85.6614 30.8014C85.8214 31.1005 85.7037 31.472 85.4048 31.6291C85.106 31.7861 84.7347 31.6713 84.5777 31.3723C81.9151 26.328 76.3032 23.0356 70.5916 23.0568C64.8892 23.1293 59.3557 26.6089 56.8199 31.7197C56.7445 31.8737 56.6086 31.9885 56.4456 32.0338C56.2826 32.0821 56.1075 32.061 55.9596 31.9734C52.4789 29.9013 47.8783 30.0191 44.5063 32.2634C41.1374 34.5106 39.2536 38.7122 39.8242 42.7234C39.8725 43.0587 39.64 43.3698 39.3049 43.4152C39.2748 43.4182 39.2446 43.4212 39.2174 43.4212Z" fill="#212121"/>
<path d="M119.321 169.142C119.007 169.142 118.741 168.903 118.711 168.583C118.27 163.659 120.066 158.612 123.517 155.078C126.826 151.689 131.559 149.786 136.289 149.922C137.213 139.093 146.158 129.434 156.911 127.782C160.594 127.214 163.845 127.676 166.308 129.12C166.601 129.292 166.698 129.666 166.529 129.959C166.357 130.252 165.982 130.349 165.689 130.18C162.888 128.537 159.471 128.63 157.098 128.993C146.695 130.594 138.074 140.084 137.47 150.599C137.461 150.762 137.385 150.913 137.264 151.022C137.141 151.13 136.981 151.179 136.818 151.176C132.241 150.88 127.598 152.653 124.395 155.936C121.192 159.219 119.523 163.904 119.934 168.474C119.964 168.812 119.716 169.108 119.378 169.139C119.357 169.142 119.339 169.142 119.321 169.142Z" fill="#212121"/>
<path d="M77.6646 119.602C77.6585 119.602 77.6495 119.602 77.6434 119.602C77.3053 119.59 77.0397 119.309 77.0518 118.971C77.2389 113.247 81.3294 107.828 86.7783 106.082C91.9646 104.421 98.0776 106.185 101.649 110.281C106.159 104.067 114.464 100.316 123.067 100.681C130.496 100.992 137.331 104.255 145.225 111.253C146.327 112.229 147.29 113.353 148.22 114.44C148.516 114.787 148.814 115.132 149.116 115.476C149.34 115.73 149.315 116.116 149.062 116.34C148.811 116.563 148.422 116.542 148.199 116.285C147.894 115.938 147.592 115.588 147.293 115.237C146.39 114.183 145.454 113.09 144.416 112.168C136.748 105.369 130.149 102.204 123.019 101.905C114.53 101.542 106.355 105.366 102.201 111.634C102.093 111.8 101.908 111.9 101.712 111.909C101.522 111.936 101.326 111.824 101.205 111.667C98.0384 107.514 92.1276 105.653 87.1526 107.245C82.1777 108.837 78.4464 113.784 78.2744 119.007C78.2653 119.342 77.9936 119.602 77.6646 119.602Z" fill="#212121"/>
<path d="M196.025 153.939L196.104 153.332L196.019 153.939C195.612 153.888 195.204 153.834 194.797 153.764C190.926 153.103 187.527 151.034 184.243 149.028C183.346 148.481 182.45 147.934 181.547 147.418C176.264 144.394 171.781 143.567 168.222 144.962C167.908 145.089 167.552 144.929 167.428 144.615C167.304 144.301 167.458 143.944 167.775 143.821C171.694 142.283 176.533 143.138 182.154 146.355C183.069 146.877 183.974 147.43 184.88 147.983C188.068 149.928 191.361 151.937 195.002 152.556C195.391 152.622 195.784 152.671 196.176 152.722L196.025 153.939Z" fill="#212121"/>
<path d="M223.816 136.321C223.611 136.321 223.412 136.218 223.297 136.031C221.265 132.771 220.061 131.735 218.316 130.422C215.611 128.38 213.797 127.413 210.844 126.44C207.59 125.365 204.336 125.169 201.435 125.87C201.109 125.951 200.777 125.746 200.695 125.417C200.617 125.087 200.819 124.755 201.148 124.676C204.272 123.921 207.756 124.13 211.228 125.275C214.283 126.283 216.257 127.335 219.052 129.44C220.858 130.802 222.198 131.95 224.335 135.381C224.513 135.668 224.426 136.046 224.139 136.227C224.039 136.29 223.928 136.321 223.816 136.321Z" fill="#212121"/>
<path d="M121.866 85.76C121.588 85.76 121.338 85.5727 121.271 85.2888C119.695 78.7373 115.539 72.9016 109.86 69.277C104.185 65.6523 97.142 64.3354 90.5399 65.6644C90.2109 65.7339 89.8848 65.5164 89.8184 65.1842C89.752 64.8519 89.9664 64.5287 90.2984 64.4623C97.2084 63.0728 104.58 64.4502 110.521 68.244C116.462 72.0377 120.815 78.1483 122.464 85.0049C122.542 85.3341 122.34 85.6633 122.011 85.7449C121.962 85.754 121.914 85.76 121.866 85.76Z" fill="#212121"/>
<path d="M121.159 16.5748C120.981 16.5748 120.806 16.4963 120.682 16.3483C120.468 16.0855 120.507 15.6988 120.77 15.4844C125.829 11.3553 132.456 9.0416 139.003 9.09597C140.528 9.11107 142.176 9.25304 144.042 9.53092C147.764 10.0837 151.438 11.0321 154.961 12.3521C155.278 12.4699 155.438 12.8233 155.32 13.1405C155.202 13.4576 154.849 13.6177 154.532 13.4999C151.091 12.2101 147.501 11.2828 143.864 10.7452C142.055 10.4764 140.461 10.3404 138.991 10.3253C132.742 10.2498 126.385 12.488 121.543 16.4389C121.434 16.5295 121.295 16.5748 121.159 16.5748Z" fill="#212121"/>
<path d="M244.921 105.511V109.909H233.833V105.511H232.335V220.636V231.138V346.262H233.833V341.665H244.921V346.262H246.418V231.138V220.636V105.511H244.921ZM233.833 111.407H244.921V119.502H233.833V111.407ZM233.833 121.004H244.921V129.099H233.833V121.004ZM233.833 130.597H244.921V138.692H233.833V130.597ZM233.833 140.193H244.921V148.288H233.833V140.193ZM233.833 149.786H244.921V157.881H233.833V149.786ZM233.833 159.379H244.921V167.474H233.833V159.379ZM233.833 168.976H244.921V177.071H233.833V168.976ZM233.833 178.569H244.921V186.664H233.833V178.569ZM233.833 188.165H244.921V196.26H233.833V188.165ZM233.833 197.758H244.921V205.853H233.833V197.758ZM233.833 207.351H244.921V215.446H233.833V207.351ZM244.921 340.164H233.833V332.069H244.921V340.164ZM244.921 330.571H233.833V322.476H244.921V330.571ZM244.921 320.978H233.833V312.883H244.921V320.978ZM244.921 311.381H233.833V303.286H244.921V311.381ZM244.921 301.788H233.833V293.693H244.921V301.788ZM244.921 292.192H233.833V284.097H244.921V292.192ZM244.921 282.599H233.833V274.504H244.921V282.599ZM244.921 273.006H233.833V264.911H244.921V273.006ZM244.921 263.409H233.833V255.314H244.921V263.409ZM244.921 253.816H233.833V245.721H244.921V253.816ZM244.921 244.223H233.833V236.128H244.921V244.223ZM244.921 234.627H233.833V231.138V226.541H244.921V231.138V234.627ZM244.921 225.034H233.833V220.636V216.948H244.921V220.636V225.034Z" fill="#2F191B"/>
<path d="M106.488 126.785C107.908 126.785 109.06 125.633 109.06 124.211C109.06 122.79 107.908 121.638 106.488 121.638C105.068 121.638 103.916 122.79 103.916 124.211C103.916 125.633 105.068 126.785 106.488 126.785Z" fill="#EFC436"/>
<path d="M67.5381 148.513C67.8646 147.129 67.0085 145.743 65.6261 145.417C64.2437 145.09 62.8584 145.947 62.532 147.33C62.2055 148.713 63.0616 150.099 64.444 150.426C65.8264 150.752 67.2117 149.896 67.5381 148.513Z" fill="#EFC436"/>
<path d="M102.372 152.331C103.684 151.787 104.307 150.282 103.764 148.969C103.22 147.655 101.716 147.032 100.403 147.576C99.0907 148.12 98.4675 149.625 99.0112 150.938C99.5548 152.251 101.059 152.875 102.372 152.331Z" fill="#EFC436"/>
<path d="M217.538 136.45C218.543 135.445 218.543 133.815 217.538 132.81C216.534 131.805 214.906 131.805 213.901 132.81C212.897 133.815 212.897 135.445 213.901 136.45C214.906 137.455 216.534 137.455 217.538 136.45Z" fill="#EFC436"/>
<path d="M228.439 113.786C228.765 112.403 227.909 111.017 226.527 110.69C225.145 110.363 223.759 111.22 223.433 112.603C223.106 113.986 223.962 115.372 225.345 115.699C226.727 116.026 228.113 115.169 228.439 113.786Z" fill="#EFC436"/>
<path d="M251.957 125.644C252.185 124.241 251.233 122.919 249.831 122.691C248.429 122.463 247.107 123.416 246.88 124.819C246.652 126.222 247.604 127.544 249.007 127.772C250.409 127.999 251.73 127.047 251.957 125.644Z" fill="#EFC436"/>
<path d="M183.85 120.311C184.854 119.306 184.854 117.676 183.85 116.671C182.845 115.666 181.217 115.666 180.212 116.671C179.208 117.676 179.208 119.306 180.212 120.311C181.217 121.316 182.845 121.316 183.85 120.311Z" fill="#EFC436"/>
<path d="M191.406 146.869C192.41 145.864 192.41 144.234 191.406 143.229C190.401 142.224 188.773 142.224 187.768 143.229C186.764 144.234 186.764 145.864 187.768 146.869C188.773 147.874 190.401 147.874 191.406 146.869Z" fill="#EFC436"/>
<path d="M151.488 123.578C152.492 122.573 152.492 120.944 151.488 119.939C150.483 118.934 148.855 118.934 147.85 119.939C146.846 120.944 146.846 122.573 147.85 123.578C148.855 124.583 150.483 124.583 151.488 123.578Z" fill="#EFC436"/>
<path d="M262.24 296.992C264.024 298.13 265.34 299.885 266.318 301.764C267.296 303.643 267.969 305.66 268.739 307.633C269.346 309.195 270.025 310.798 269.922 312.472C269.859 313.484 269.512 314.453 269.15 315.399C267.731 319.09 266.019 322.666 264.036 326.085C264.428 317.247 262.445 308.488 261.835 299.662C261.772 298.747 261.741 297.762 262.24 296.992Z" fill="#BEBFBF"/>
<path d="M251.175 363.126C250.617 363.141 250.059 363.153 249.503 363.168C249.246 363.93 248.495 364.41 247.755 364.721C247.013 365.032 246.213 365.243 245.579 365.739C245.434 365.851 245.292 366.005 245.307 366.186C245.331 366.467 245.696 366.563 245.977 366.566C247.375 366.582 248.76 366.138 250.152 366.261C250.409 366.282 250.665 366.325 250.919 366.292C251.172 366.258 251.432 366.135 251.553 365.908C251.737 365.564 251.544 365.15 251.408 364.781C251.209 364.259 251.13 363.688 251.175 363.126Z" fill="#411E2F"/>
<path d="M247.574 341.786C248.29 338.007 248.492 335.349 249.515 331.368C250.179 328.774 250.816 324.768 252.136 322.436C252.214 322.298 252.299 322.156 252.386 322.014L265.234 321.376C265.557 322.15 265.56 323.059 265.542 323.917C265.485 326.566 265.424 329.212 265.367 331.861C265.297 334.932 265.237 338.062 266.076 341.016C266.755 343.411 268.002 345.601 269.237 347.764C271.803 352.261 274.372 356.762 276.938 361.259C276.068 361.438 275.253 361.86 274.604 362.465C270.272 357.082 265.94 351.699 261.608 346.317C260.449 344.879 259.281 343.42 258.52 341.735C257.455 339.37 257.264 336.718 257.089 334.132C257.047 333.513 257.005 332.891 256.963 332.271C256.458 334.02 256.256 335.093 255.031 338.004C254.324 339.684 253.5 341.886 252.785 344.849C252.308 346.827 252.241 351.189 252.274 353.225L252.326 364.053C251.173 364.068 250.059 364.038 248.905 364.053C249.087 355.723 246.025 349.978 247.574 341.786Z" fill="#411E2F"/>
<path d="M263.939 296.983C263.939 296.983 258.934 294.98 254.732 298.87C254.732 298.87 250.152 325.714 246.345 335.926C246.345 335.926 259.728 342.792 268.256 341.819C268.256 341.822 267.214 306.621 263.939 296.983Z" fill="#E4E4E5"/>
<path d="M243.04 314.87L236.947 322.939L250.022 332.823L256.114 324.753L243.04 314.87Z" fill="#BE348E"/>
<path d="M263.685 297.188C263.477 297.701 261.753 297.538 261.08 297.547C259.012 297.578 258.363 297.106 257.213 297.354C257.548 295.563 257.135 294.959 257.089 293.27C257.986 292.627 259.329 291.775 260.226 291.132C260.558 292.887 262.463 295.871 263.685 297.188Z" fill="#DC8345"/>
<path d="M260.205 292.361C260.443 291.576 260.452 290.721 260.129 289.963C259.713 288.981 258.722 288.44 257.756 288.199C256.79 287.957 255.785 287.939 254.837 287.616C254.759 287.643 254.68 288.365 254.662 288.45C254.563 288.93 254.463 289.41 254.397 289.896C254.237 291.086 254.191 292.319 254.324 293.515C254.412 294.297 254.744 295.279 255.646 295.397C256.437 295.499 257.325 295.312 258.031 294.947C259.048 294.421 259.87 293.464 260.205 292.361Z" fill="#DC8345"/>
<path d="M254.62 286.027C254.221 286.021 253.823 285.909 253.476 285.71C253.515 286.649 254.14 287.495 254.937 287.993C255.734 288.492 256.685 288.682 257.624 288.761C257.935 288.788 258.252 288.803 258.547 288.897C258.843 288.99 259.127 289.18 259.26 289.464C259.384 289.733 259.356 290.041 259.362 290.337C259.371 290.911 259.516 291.482 259.779 291.99C259.957 292.334 260.208 292.666 260.573 292.793C260.591 292.234 260.609 291.675 260.679 291.12C260.83 289.933 261.216 288.785 261.424 287.607C261.436 287.543 261.445 287.474 261.418 287.413C261.394 287.362 261.349 287.326 261.304 287.293C260.673 286.821 260.042 286.353 259.411 285.888C258.605 285.296 257.566 285.106 256.609 285.393C256.292 285.486 255.963 285.553 255.634 285.589C254.949 285.662 254.173 285.559 253.732 285.03C253.862 285.471 254.197 285.849 254.62 286.027Z" fill="#17293C"/>
<path d="M259.782 289.794C259.981 289.827 260.129 290.017 260.162 290.217C260.196 290.416 260.135 290.621 260.042 290.803C259.948 290.984 259.827 291.144 259.725 291.319C259.598 291.533 259.48 291.787 259.248 291.872C259.033 291.95 258.783 291.848 258.635 291.672C258.487 291.497 258.42 291.268 258.387 291.041C258.611 291.041 258.795 290.869 258.913 290.679C259.027 290.488 259.1 290.274 259.223 290.09C259.353 289.905 259.565 289.754 259.782 289.794Z" fill="#DC8345"/>
<path d="M276.971 363.911C276.748 364.525 276.482 365.135 276.074 365.645C275.854 365.92 275.468 366.18 275.175 365.98C275.006 365.866 274.954 365.645 274.921 365.446C274.628 363.724 274.767 361.933 275.32 360.278C275.845 360.081 276.467 360.296 276.841 360.713C277.215 361.132 277.363 361.715 277.345 362.277C277.333 362.839 277.164 363.383 276.971 363.911Z" fill="#411E2F"/>
<path d="M244.896 323.986C244.866 323.403 244.012 323.077 244.078 322.497C242.309 323.47 241.186 325.511 241.319 327.529C241.757 327.707 242.27 327.502 242.611 327.176C242.952 326.85 243.17 326.418 243.423 326.019C243.689 325.605 244.003 325.218 244.356 324.877C244.613 324.626 244.915 324.342 244.896 323.986Z" fill="#DC8345"/>
<path d="M259.402 297.816C259.369 297.828 259.335 297.837 259.302 297.849C257.104 298.571 255.477 300.402 254.852 302.631C252.733 310.167 248.637 316.175 242.865 323.044C243.281 324.137 244.036 324.602 245.047 325.164C250.161 321.225 254.871 318.072 257.784 312.858C259.87 309.125 261.476 305.262 262.87 301.359C263.646 299.191 261.593 297.103 259.402 297.816Z" fill="#E4E4E5"/>
<path d="M242.542 181.604C243.493 181.786 244.498 181.668 245.383 181.275C247.179 186.159 247.59 191.545 246.551 196.644C246.283 196.616 246.017 196.589 245.748 196.565C244.797 191.554 243.729 186.564 242.542 181.604Z" fill="#B04492"/>
<path d="M245.981 199.027C246.301 198.752 246.618 198.447 246.778 198.054C246.971 197.574 246.895 197.03 246.799 196.52C246.771 196.381 246.744 196.242 246.672 196.121C246.599 196 246.476 195.904 246.334 195.904C246.153 195.904 246.011 196.058 245.899 196.203C245.307 196.967 244.821 197.813 244.462 198.71C244.405 198.849 244.35 198.997 244.35 199.148C244.347 199.299 244.408 199.459 244.535 199.54C244.616 199.592 244.719 199.607 244.815 199.607C245.259 199.601 245.642 199.314 245.981 199.027Z" fill="#411E2F"/>
<path d="M237.745 179.862C238.657 180.179 239.623 180.339 240.589 180.333C241.072 185.471 239.695 190.584 238.334 195.562C238.011 195.441 237.688 195.324 237.365 195.203C237.169 190.089 237.295 184.96 237.745 179.862Z" fill="#B04492"/>
<path d="M244.51 166.194C245.344 166.574 245.745 167.523 245.974 168.411C247.146 172.969 245.712 177.771 245.902 182.474C243.082 182.387 240.266 182.299 237.446 182.215C236.776 179.517 236.103 176.802 235.925 174.029C235.744 171.256 236.082 168.39 237.341 165.913C239.255 165.937 241.172 165.958 243.085 165.982C243.568 165.985 244.07 165.994 244.51 166.194Z" fill="#411E2F"/>
<path d="M238.675 195.68C238.693 195.457 238.708 195.227 238.657 195.006C238.605 194.786 238.473 194.575 238.267 194.484C237.965 194.351 237.609 194.517 237.371 194.747C237.132 194.976 236.96 195.269 236.704 195.478C236.344 195.771 235.861 195.87 235.469 196.121C235.324 196.215 235.176 196.39 235.258 196.544C235.321 196.659 235.472 196.68 235.602 196.686C236.384 196.719 237.169 196.689 237.944 196.589C238.095 196.571 238.252 196.547 238.379 196.456C238.612 196.29 238.654 195.967 238.675 195.68Z" fill="#411E2F"/>
<path d="M244.661 154.969C242.726 154.208 240.553 154.075 238.539 154.595C237.67 154.818 236.761 155.226 236.369 156.033C236.027 156.73 236.16 157.564 236.381 158.307C236.776 159.633 237.437 160.938 237.31 162.315C237.244 163.022 236.969 163.693 236.698 164.348C236.012 166.009 235.324 167.671 234.639 169.332C238.663 171.002 243.348 171.005 247.375 169.341C246.699 167.828 246.02 166.315 245.343 164.801C245.22 164.526 245.096 164.245 245.051 163.946C244.984 163.508 245.099 163.064 245.211 162.636C245.579 161.222 245.947 159.808 246.313 158.395C246.482 157.745 246.648 157.048 246.412 156.422C246.134 155.685 245.386 155.256 244.661 154.969Z" fill="#DAD9D9"/>
<path d="M233.407 156.153C233.129 156.169 232.849 156.126 232.592 156.027C232.486 155.987 232.384 155.936 232.302 155.854C232.239 155.791 232.191 155.709 232.145 155.631C232.018 155.41 231.889 155.187 231.84 154.936C231.762 154.504 231.946 154.072 232.127 153.671C232.182 153.55 232.236 153.429 232.29 153.308C232.311 153.26 232.351 153.199 232.405 153.208C232.453 153.217 232.474 153.272 232.486 153.317C232.517 153.432 232.547 153.547 232.577 153.661C232.631 153.864 232.698 154.087 232.882 154.19C233.129 154.329 233.434 154.172 233.664 154.006C233.742 153.951 233.842 153.891 233.926 153.936C234.023 153.988 234.017 154.124 233.987 154.226C233.896 154.556 233.721 154.852 233.582 155.16C233.443 155.474 233.338 155.818 233.407 156.153Z" fill="#B04492"/>
<path d="M233.543 159.947C232.788 159.793 232.335 159.014 232.112 158.277C231.87 157.479 231.786 156.603 232.07 155.821C232.181 155.507 232.39 155.187 232.713 155.111C232.957 155.054 233.22 155.157 233.404 155.326C233.591 155.495 233.712 155.721 233.818 155.951C234.174 156.745 234.343 157.633 234.835 158.352C234.925 158.485 235.031 158.621 235.055 158.781C235.07 158.887 235.049 158.996 235.016 159.098C234.82 159.684 234.15 160.071 233.543 159.947Z" fill="#DAD9D9"/>
<path d="M238.512 154.797C238.038 154.589 237.48 154.691 237.018 154.921C236.556 155.148 236.16 155.489 235.738 155.788C234.615 156.579 233.274 156.999 231.91 157.099C232.067 158.087 232.677 159.098 233.368 160.002C234.129 159.938 234.886 159.823 235.629 159.642C236.453 159.443 237.274 159.177 237.972 158.694C238.669 158.21 239.23 157.485 239.36 156.649C239.469 155.927 239.179 155.09 238.512 154.797Z" fill="#DAD9D9"/>
<path d="M248.042 158.857C247.665 159.935 246.651 160.693 245.564 161.038C244.477 161.382 243.312 161.37 242.174 161.322C240.776 161.261 239.239 161.08 238.289 160.056C237.407 159.107 237.274 157.667 237.495 156.389C237.715 155.111 238.231 153.9 238.476 152.625C238.817 150.855 238.693 148.835 239.901 147.497C240.694 146.618 241.999 146.24 243.137 146.554C244.193 146.847 245.039 147.675 245.594 148.62C246.149 149.566 246.451 150.638 246.747 151.695C247.1 152.955 247.454 154.217 247.807 155.477C248.115 156.582 248.423 157.772 248.042 158.857Z" fill="#CE9A36"/>
<path d="M200.831 350.829L200.218 350.826L200.659 241.634L200.692 240.459C200.904 232.579 201.043 227.374 203.313 221.143C203.699 220.08 204.134 219.005 204.556 217.965C205.981 214.438 207.457 210.789 207.349 206.995C207.183 201.138 203.56 196.565 199.723 191.723C196.895 188.153 193.97 184.459 192.524 180.176C191.787 177.998 191.452 175.687 191.123 173.455C190.794 171.208 190.453 168.882 189.707 166.719C187.201 159.467 179.905 153.779 170.194 151.508C164.784 150.242 159.118 149.989 153.639 149.747C150.602 149.611 147.462 149.472 144.392 149.161C135.408 148.255 127.68 145.899 121.428 142.159C113.935 137.68 108.487 131.146 106.087 123.758L106.669 123.568C109.024 130.814 114.376 137.23 121.742 141.631C127.918 145.325 135.559 147.651 144.452 148.548C147.507 148.856 150.638 148.995 153.666 149.131C159.172 149.375 164.868 149.629 170.335 150.907C180.252 153.23 187.712 159.062 190.287 166.517C191.05 168.731 191.398 171.087 191.73 173.364C192.053 175.569 192.388 177.853 193.103 179.976C194.516 184.157 197.408 187.809 200.203 191.34C203.932 196.046 207.79 200.915 207.962 206.977C208.073 210.897 206.573 214.607 205.124 218.195C204.704 219.231 204.273 220.3 203.889 221.355C201.652 227.492 201.513 232.657 201.305 240.478L201.275 241.646L200.831 350.829Z" fill="#CC2573"/>
<path d="M196.837 232.754C196.72 232.754 196.623 232.657 196.623 232.54V203.12C196.623 203.002 196.72 202.905 196.837 202.905C196.955 202.905 197.052 203.002 197.052 203.12V232.54C197.052 232.657 196.955 232.754 196.837 232.754Z" fill="#5493AF"/>
<path d="M196.988 330.356C196.871 330.356 196.774 330.26 196.774 330.142V234.225C196.774 234.107 196.871 234.011 196.988 234.011C197.106 234.011 197.203 234.107 197.203 234.225V330.142C197.203 330.26 197.109 330.356 196.988 330.356Z" fill="#5493AF"/>
<path d="M196.988 351.044C196.871 351.044 196.774 350.947 196.774 350.829V331.827C196.774 331.709 196.871 331.613 196.988 331.613C197.106 331.613 197.203 331.709 197.203 331.827V350.829C197.203 350.947 197.109 351.044 196.988 351.044Z" fill="#5493AF"/>
<path d="M195.458 351.044C195.34 351.044 195.244 350.947 195.244 350.829V238.055C195.244 237.937 195.34 237.841 195.458 237.841C195.576 237.841 195.672 237.937 195.672 238.055V350.829C195.672 350.947 195.576 351.044 195.458 351.044Z" fill="#5493AF"/>
<path d="M195.458 232.6C195.34 232.6 195.244 232.503 195.244 232.385V208.022C195.244 207.904 195.34 207.807 195.458 207.807C195.576 207.807 195.672 207.904 195.672 208.022V232.385C195.672 232.503 195.576 232.6 195.458 232.6Z" fill="#5493AF"/>
<path d="M194.232 351.044C194.115 351.044 194.018 350.947 194.018 350.829V285.094C194.018 284.976 194.115 284.879 194.232 284.879C194.35 284.879 194.447 284.976 194.447 285.094V350.826C194.447 350.947 194.353 351.044 194.232 351.044Z" fill="#5493AF"/>
<path d="M194.386 283.472C194.268 283.472 194.172 283.375 194.172 283.257V261.5C194.172 261.382 194.268 261.286 194.386 261.286C194.504 261.286 194.6 261.382 194.6 261.5V283.257C194.6 283.375 194.504 283.472 194.386 283.472Z" fill="#5493AF"/>
<path d="M194.081 258.495C193.964 258.495 193.867 258.398 193.867 258.28V215.226C193.867 215.108 193.964 215.011 194.081 215.011C194.199 215.011 194.296 215.108 194.296 215.226V258.28C194.293 258.398 194.199 258.495 194.081 258.495Z" fill="#5493AF"/>
<path d="M193.161 351.044C193.043 351.044 192.946 350.947 192.946 350.829V208.635C192.946 208.517 193.043 208.421 193.161 208.421C193.278 208.421 193.375 208.517 193.375 208.635V350.826C193.375 350.947 193.278 351.044 193.161 351.044Z" fill="#5493AF"/>
<path d="M203.726 350.829H203.114V242.414C203.114 233.334 204.406 224.568 206.956 216.356C207.935 213.202 209.073 210.151 210.338 207.288C214.289 198.344 209.459 192.889 204.789 187.615C201.927 184.383 199.225 181.333 198.525 177.59C197.701 173.186 198.431 170.135 199.017 167.686C199.76 164.587 200.249 162.539 197.384 159.672C192.059 154.344 189.384 151.668 189.281 145.056L189.894 145.047C189.994 151.411 192.608 154.027 197.819 159.237C200.928 162.349 200.348 164.768 199.615 167.828C199.041 170.223 198.326 173.201 199.129 177.478C199.799 181.055 202.446 184.045 205.248 187.21C210.048 192.629 215.008 198.232 210.899 207.539C209.643 210.381 208.514 213.411 207.542 216.54C205.012 224.692 203.726 233.4 203.726 242.417V350.829Z" fill="#CC2573"/>
<path d="M204.952 350.829H204.339V242.722C204.339 235.24 205.236 228.048 207.005 221.351C207.974 217.679 209.097 214.489 210.341 211.879C210.763 210.991 211.186 210.127 211.599 209.281C215.702 200.912 218.666 194.864 211.144 185.697C202.745 175.461 202.999 172.652 208.194 161.47C214.099 148.759 216.529 139.752 215.421 134.699L216.019 134.566C217.157 139.755 214.712 148.895 208.75 161.729C203.618 172.778 203.394 175.282 211.618 185.308C219.391 194.78 216.194 201.298 212.149 209.55C211.735 210.39 211.316 211.254 210.893 212.139C209.667 214.715 208.557 217.869 207.597 221.506C205.84 228.151 204.949 235.291 204.949 242.722V350.829H204.952Z" fill="#CC2573"/>
<path d="M206.178 350.829H205.565V243.61C205.565 234.4 208.052 225.659 212.756 218.328C213.918 216.516 215.183 214.836 216.514 213.335C222.325 206.78 226.66 197.737 228.106 189.144C228.852 184.703 228.145 180.901 226.005 177.835C224.29 175.376 221.884 173.479 219.557 171.646C218.25 170.616 216.9 169.549 215.681 168.396C212.164 165.064 209.679 162.125 207.859 159.147C205.468 155.232 204.819 152.033 205.87 149.363C206.135 148.687 206.522 148.046 207.014 147.46C209.525 144.47 217.033 142.688 224.985 140.806C234.741 138.492 245.802 135.874 248.752 130.606C249.642 129.017 249.763 127.289 249.12 125.332L249.703 125.142C250.391 127.244 250.252 129.183 249.286 130.905C246.204 136.405 235.49 138.945 225.127 141.401C217.278 143.262 209.864 145.017 207.485 147.853C207.035 148.388 206.685 148.974 206.443 149.587C205.468 152.064 206.102 155.087 208.387 158.824C210.178 161.756 212.632 164.656 216.106 167.949C217.308 169.087 218.645 170.141 219.94 171.162C222.301 173.023 224.743 174.95 226.512 177.481C228.746 180.683 229.489 184.64 228.713 189.243C227.249 197.945 222.859 207.101 216.976 213.74C215.666 215.217 214.419 216.872 213.275 218.657C208.635 225.885 206.181 234.515 206.181 243.607V350.829H206.178Z" fill="#CC2573"/>
<path d="M180.144 350.829H179.531V239.254C179.531 237.161 179.338 235.062 178.96 233.017C177.635 225.855 174.812 208.23 177.246 199.311C179.232 192.016 185.285 169.821 173.11 163.297C167.389 160.228 158.013 162.608 148.947 164.91C140.006 167.181 131.559 169.323 126.744 166.351C124.127 164.735 122.029 163.342 120.344 162.228C115.768 159.195 113.875 157.936 111.01 158.222C110.081 158.316 108.221 159.053 105.866 159.986C97.9058 163.14 84.5809 168.42 75.8868 162.255C66.7429 155.767 66.1603 153.371 65.4207 150.342C65.2456 149.617 65.0614 148.871 64.7505 148.013L65.3271 147.805C65.6501 148.693 65.8373 149.457 66.0154 150.197C66.7248 153.103 67.2832 155.401 76.24 161.756C84.6624 167.734 97.7941 162.53 105.64 159.419C108.133 158.431 109.936 157.715 110.947 157.615C114.026 157.301 116.112 158.691 120.68 161.717C122.361 162.832 124.453 164.218 127.064 165.831C131.659 168.667 139.982 166.556 148.797 164.318C157.974 161.986 167.465 159.576 173.4 162.759C186.003 169.516 179.857 192.064 177.837 199.474C175.437 208.273 178.248 225.786 179.564 232.908C179.95 234.989 180.144 237.125 180.144 239.257V350.829Z" fill="#CC2573"/>
<path d="M188.21 350.829H187.597V255.613C187.597 245.972 188.56 237.514 190.54 229.758C191.473 226.112 191.835 220.028 188.285 211.773C181.84 196.789 182.054 189.847 182.447 177.249C182.477 176.225 182.513 175.162 182.544 174.053C182.972 158.603 182.471 147.826 172.035 139.157C167.622 135.493 163.447 133.363 159.764 131.485C154.614 128.86 150.547 126.788 149.37 121.828L149.965 121.686C151.076 126.368 154.837 128.286 160.038 130.938C163.752 132.829 167.96 134.973 172.425 138.683C183.075 147.53 183.588 158.437 183.153 174.065C183.123 175.174 183.09 176.237 183.057 177.264C182.667 189.775 182.453 196.668 188.844 211.526C192.463 219.941 192.086 226.166 191.132 229.906C189.164 237.614 188.207 246.02 188.207 255.61V350.829H188.21Z" fill="#CC2573"/>
<path d="M181.318 350.829H180.705V237.632C180.705 236.542 180.636 235.439 180.497 234.361C179.815 229 178.296 215.7 178.918 208.001C179.302 203.25 180.968 198.722 182.58 194.342C183.184 192.705 183.806 191.01 184.349 189.337C186.821 181.722 186.559 174.262 183.588 167.755C181.188 162.503 176.521 159.008 170.441 157.914C164.295 156.809 156.585 158.204 149.135 159.558C140.383 161.143 132.118 162.645 128.338 159.376C127.798 158.911 127.237 158.416 126.657 157.902C120.004 152.033 110.887 143.996 101.553 150.206L101.212 149.696C110.938 143.223 120.257 151.438 127.058 157.443C127.638 157.954 128.196 158.449 128.737 158.914C132.296 161.989 140.423 160.515 149.023 158.953C156.528 157.591 164.289 156.184 170.55 157.31C176.832 158.44 181.662 162.059 184.147 167.499C187.184 174.144 187.455 181.761 184.935 189.524C184.388 191.207 183.763 192.907 183.157 194.55C181.56 198.891 179.905 203.379 179.531 208.046C178.897 215.906 180.578 230.111 181.107 234.279C181.249 235.385 181.318 236.512 181.318 237.629V350.829Z" fill="#CC2573"/>
<path d="M202.504 350.829H201.891V238.115C201.891 235.805 202.084 233.781 202.48 231.929C203.738 226.061 206.431 222.436 209.281 218.597C212.87 213.767 216.937 208.291 218.893 197.094C219.524 193.475 219.62 189.799 219.72 185.909C219.958 176.684 220.227 166.227 227.182 150.596C236.948 128.645 225.8 113.516 225.688 113.365L226.177 112.996C226.292 113.15 237.658 128.567 227.744 150.846C220.84 166.366 220.571 176.756 220.333 185.924C220.233 189.838 220.137 193.538 219.497 197.199C217.516 208.538 213.402 214.078 209.773 218.962C206.963 222.747 204.309 226.32 203.077 232.059C202.688 233.869 202.501 235.85 202.501 238.118V350.829H202.504Z" fill="#CC2573"/>
<path d="M186.423 350.829H185.81V246.543C185.81 240.934 186.356 235.923 187.479 231.22C188.231 228.078 188.659 223.291 186.447 218.31C183.899 212.574 187.265 203.107 190.519 193.952C192.557 188.225 194.48 182.816 194.794 178.732C195.476 169.83 193.308 166.659 186.866 157.25C185.716 155.567 184.43 153.692 183.002 151.55C173.626 137.477 181.668 118.554 181.749 118.367L182.311 118.611C182.229 118.799 174.32 137.42 183.509 151.212C184.934 153.35 186.22 155.226 187.367 156.905C193.725 166.188 196.101 169.661 195.4 178.78C195.08 182.945 193.142 188.391 191.093 194.161C187.878 203.201 184.554 212.55 187.002 218.062C189.284 223.2 188.844 228.13 188.071 231.362C186.957 236.016 186.417 240.982 186.417 246.543V350.829H186.423Z" fill="#CC2573"/>
<path d="M208.628 289.078H196.07V307.005H208.628V289.078Z" fill="#989898"/>
<path d="M201.906 289.078H196.07V307.005H201.906V289.078Z" fill="#BEBDBD"/>
<path d="M189.641 278.506H177.083V290.763H189.641V278.506Z" fill="#821F40"/>
<path d="M183.989 278.506H177.083V290.763H183.989V278.506Z" fill="#BE348E"/>
<path d="M136.981 145.545H135.586V349.585H136.981V145.545Z" fill="#CD3552"/>
<path d="M157.349 145.545H155.954V349.585H157.349V145.545Z" fill="#CD3552"/>
<path d="M156.986 152.689H135.897V155.124H156.986V152.689Z" fill="#CD3552"/>
<path d="M156.986 168.272H135.897V170.706H156.986V168.272Z" fill="#CD3552"/>
<path d="M156.986 183.855H135.897V186.289H156.986V183.855Z" fill="#CD3552"/>
<path d="M156.986 199.438H135.897V201.872H156.986V199.438Z" fill="#CD3552"/>
<path d="M156.986 215.021H135.897V217.455H156.986V215.021Z" fill="#CD3552"/>
<path d="M156.986 230.603H135.897V233.038H156.986V230.603Z" fill="#CD3552"/>
<path d="M156.986 246.186H135.897V248.621H156.986V246.186Z" fill="#CD3552"/>
<path d="M156.986 261.769H135.897V264.204H156.986V261.769Z" fill="#CD3552"/>
<path d="M156.986 277.352H135.897V279.787H156.986V277.352Z" fill="#CD3552"/>
<path d="M156.986 292.935H135.897V295.37H156.986V292.935Z" fill="#CD3552"/>
<path d="M156.986 308.518H135.897V310.953H156.986V308.518Z" fill="#CD3552"/>
<path d="M156.986 324.101H135.897V326.535H156.986V324.101Z" fill="#CD3552"/>
<path d="M156.986 339.684H135.897V342.118H156.986V339.684Z" fill="#CD3552"/>
<path d="M134.659 159.283C134.696 159.017 134.732 158.748 134.832 158.5C134.931 158.253 135.103 158.026 135.339 157.927C135.659 157.788 136.024 157.902 136.368 157.854C136.57 157.827 136.77 157.742 136.969 157.773C137.304 157.824 137.515 158.165 137.681 158.473C137.859 158.802 138.047 159.174 137.959 159.54C137.908 159.757 137.769 159.935 137.633 160.107C137.289 160.539 136.933 160.986 136.453 161.237C135.973 161.488 135.333 161.497 134.952 161.101C134.735 160.878 134.629 160.557 134.599 160.237C134.572 159.917 134.617 159.597 134.659 159.283Z" fill="#DC8345"/>
<path d="M137.995 214.507C137.844 214.634 137.702 214.824 137.733 215.036C137.778 215.338 138.119 215.425 138.388 215.443C139.607 215.522 140.833 215.507 142.053 215.398C142.433 215.365 142.859 215.295 143.1 214.96C143.302 214.676 143.314 214.284 143.317 213.918C143.32 213.577 143.314 213.202 143.124 212.936C142.907 212.631 142.527 212.562 142.179 212.517C141.63 212.444 141.02 212.384 140.57 212.749C140.344 212.933 140.187 213.205 139.979 213.414C139.426 213.966 138.59 214.009 137.995 214.507Z" fill="#411E2F"/>
<path d="M158.538 147.231C157.608 145.346 156.983 143.298 156.691 141.196C155.335 141.292 153.983 141.392 152.627 141.489C152.392 142.902 152.156 144.313 151.921 145.727C154.128 146.228 156.334 146.729 158.538 147.231Z" fill="#DC8345"/>
<path d="M151.392 135.686C151.091 135.973 151.003 136.429 150.949 136.855C150.704 138.831 150.846 140.858 151.362 142.776C153.318 142.591 155.238 141.99 156.971 141.021C156.944 139.054 156.552 137.094 155.821 135.285C154.689 135.185 153.548 135.2 152.416 135.324C152.054 135.366 151.664 135.43 151.392 135.686Z" fill="#DC8345"/>
<path d="M157.101 137.683C157.104 137.616 157.104 137.55 157.101 137.484C157.183 137.215 157.134 136.919 156.987 136.671C156.772 135.81 156.271 135.022 155.544 134.563C154.946 134.182 154.152 134.019 153.56 134.409C153.213 133.871 152.371 133.805 151.951 134.282C151.26 133.684 150.064 133.941 149.654 134.774C149.186 134.662 148.667 134.841 148.353 135.221C148.039 135.602 147.942 136.167 148.111 136.635C148.166 136.698 148.22 136.762 148.271 136.828C147.933 136.813 147.674 137.224 147.746 137.574C147.818 137.922 148.132 138.172 148.461 138.254C148.791 138.335 149.138 138.281 149.47 138.215C150.197 138.894 151.444 138.819 152.093 138.057C152.546 138.462 153.225 138.511 153.762 138.254C153.759 138.29 153.75 138.323 153.75 138.36C153.753 138.785 154.088 139.232 154.493 139.187C154.212 139.553 154.236 140.102 154.451 140.513C154.665 140.924 155.042 141.217 155.429 141.446C155.694 141.604 155.996 141.739 156.298 141.688C156.679 141.625 156.956 141.277 157.137 140.921C157.651 139.924 157.627 138.665 157.101 137.683Z" fill="#212121"/>
<path d="M153.687 139.154C153.892 138.828 154.309 138.607 154.647 138.773C154.831 138.864 154.961 139.054 155.018 139.26C155.073 139.465 155.06 139.689 155.015 139.897C154.961 140.157 154.849 140.42 154.635 140.561C154.315 140.779 153.841 140.631 153.636 140.29C153.433 139.954 153.476 139.489 153.687 139.154Z" fill="#DC8345"/>
<path d="M169.324 212.154C169.052 212.363 168.699 212.405 168.373 212.501C168.047 212.595 167.703 212.791 167.618 213.136C167.561 213.374 167.643 213.622 167.712 213.858C168.08 215.09 168.123 216.428 167.833 217.685C167.778 217.914 167.715 218.147 167.724 218.385C167.733 218.621 167.827 218.872 168.023 218.99C168.403 219.219 168.85 218.851 169.146 218.509C169.735 217.836 170.359 217.068 170.347 216.156C170.341 215.721 170.19 215.271 170.326 214.857C170.399 214.637 170.55 214.45 170.604 214.223C170.707 213.806 170.462 213.383 170.172 213.078C169.883 212.773 169.529 212.523 169.324 212.154Z" fill="#411E2F"/>
<path d="M139.04 187.676C139.882 184.528 141.533 181.686 143.187 178.907C144.591 176.545 146.013 174.195 147.447 171.854C147.534 171.712 147.625 171.573 147.719 171.431H160.597C160.88 172.247 160.841 173.189 160.778 174.074C160.588 176.808 160.397 179.541 160.21 182.278C159.99 185.453 159.773 188.682 160.467 191.781C161.028 194.291 162.166 196.619 163.292 198.918C165.638 203.7 167.981 208.484 170.326 213.266C169.451 213.405 168.612 213.8 167.932 214.392C163.866 208.605 159.8 202.818 155.736 197.03C154.65 195.484 153.551 193.916 152.875 192.134C151.924 189.636 151.866 186.884 151.818 184.199C151.806 183.556 151.797 182.912 151.785 182.269C150.746 183.426 149.657 184.534 148.473 185.525C147.054 186.709 145.883 189.255 144.944 190.874C143.897 192.684 144.069 193.97 143.999 196.079L143.426 213.525C142.273 213.48 141.119 213.438 139.966 213.392C140.567 204.784 136.818 195.991 139.04 187.676Z" fill="#411E2F"/>
<path d="M146.59 144.561C146.07 144.981 145.832 145.669 145.617 146.319C145.237 147.469 144.857 148.623 144.476 149.774C144.12 150.855 143.758 151.946 143.19 152.922C141.919 155.108 139.758 156.51 137.732 157.936C137.089 158.389 136.44 158.863 135.972 159.509C135.502 160.156 135.23 161.01 135.435 161.793C135.64 162.575 136.422 163.206 137.18 163.031C137.479 162.962 137.744 162.784 138.004 162.605C139.945 161.279 141.883 159.956 143.824 158.63C144.893 157.902 145.971 157.162 146.831 156.175C148.214 154.586 148.917 152.484 149.551 150.439C149.844 149.493 150.134 148.527 150.155 147.533C150.176 146.539 149.892 145.491 149.198 144.814C148.497 144.141 147.341 143.954 146.59 144.561Z" fill="#DAD9D9"/>
<path d="M162.891 147.916C162.891 147.916 156.992 143.827 147.076 144.467C147.076 144.467 150.997 164.557 143.909 177.777C143.909 177.777 148.646 182.731 154.375 185.721C157.352 178.394 157.88 172.431 157.88 172.431C158.635 177.928 156.666 183.577 156.087 186.721C157.995 187.443 160.854 188.044 162.725 187.92C162.728 187.917 165.69 158.204 162.891 147.916Z" fill="#DAD9D9"/>
<path d="M217.501 302.196C218.362 302.465 219.379 302.546 220.085 301.991C220.967 301.296 220.946 299.873 220.327 298.937C219.711 297.997 218.672 297.439 217.667 296.943C216.659 296.448 215.605 295.959 214.884 295.095C213.32 293.216 213.906 290.392 213.16 288.063C212.547 287.96 211.935 287.857 211.322 287.755C210.857 290.579 210.808 293.539 211.756 296.236C212.704 298.934 214.772 301.347 217.501 302.196Z" fill="#E4E4E5"/>
<path d="M197.583 283.263C197.302 283.2 197.01 283.378 196.865 283.626C196.72 283.873 196.699 284.175 196.723 284.459C196.777 285.07 197.028 285.662 197.429 286.124C197.626 286.347 197.873 286.55 198.169 286.583C198.465 286.613 198.797 286.405 198.806 286.109C198.809 285.988 198.764 285.873 198.749 285.752C198.718 285.514 198.818 285.281 198.887 285.051C198.96 284.822 199.005 284.559 198.881 284.354C198.827 284.263 198.718 284.188 198.625 284.236C198.459 284.32 198.619 284.604 198.51 284.755C198.459 284.828 198.356 284.846 198.269 284.822C198.184 284.798 198.115 284.737 198.051 284.674C197.704 284.305 197.523 283.771 197.583 283.263Z" fill="#B04492"/>
<path d="M202.015 328.979C202.676 326.59 203.971 324.433 205.269 322.325C206.371 320.534 207.485 318.748 208.611 316.972C208.677 316.867 208.75 316.758 208.822 316.652H218.926C219.15 317.271 219.116 317.984 219.068 318.658C218.92 320.733 218.769 322.808 218.621 324.883C218.449 327.29 218.28 329.743 218.823 332.096C219.264 334.002 220.155 335.769 221.039 337.512C222.878 341.143 224.719 344.77 226.558 348.401C225.869 348.507 225.211 348.806 224.68 349.256C221.489 344.864 218.301 340.472 215.11 336.08C214.259 334.905 213.396 333.715 212.864 332.365C212.119 330.468 212.073 328.381 212.037 326.342C212.028 325.853 212.019 325.366 212.01 324.877C211.195 325.756 210.341 326.596 209.411 327.348C208.297 328.248 207.379 330.178 206.643 331.407C205.822 332.779 205.957 333.757 205.9 335.355L205.45 348.594C204.545 348.561 203.639 348.528 202.736 348.495C203.213 341.961 200.27 335.289 202.015 328.979Z" fill="#7A2B88"/>
<path d="M209.725 302.477C210.202 300.725 210.205 298.78 209.731 297.025C204.973 294.415 202.012 290.769 198.809 285.719C198.124 285.758 197.728 286.1 197.236 286.568C198.534 290.129 199.464 293.328 201.867 295.883C204.27 298.438 206.978 300.517 209.725 302.477Z" fill="#E4E4E5"/>
<path d="M218.657 297.608C218.473 298.003 217.127 297.807 216.601 297.789C214.977 297.732 214.488 297.336 213.577 297.487C213.909 296.094 213.61 295.605 213.637 294.279C214.365 293.808 215.454 293.192 216.182 292.724C216.369 294.11 217.749 296.526 218.657 297.608Z" fill="#B04492"/>
<path d="M216.113 293.684C216.33 293.077 216.369 292.406 216.146 291.799C215.856 291.014 215.101 290.549 214.353 290.322C213.604 290.096 212.816 290.041 212.085 289.751C212.022 289.769 211.932 290.331 211.913 290.398C211.817 290.772 211.72 291.144 211.648 291.521C211.476 292.449 211.391 293.415 211.452 294.358C211.491 294.974 211.711 295.759 212.415 295.886C213.03 295.998 213.734 295.883 214.301 295.626C215.125 295.258 215.808 294.539 216.113 293.684Z" fill="#B04492"/>
<path d="M215.4 290.911C214.328 290.694 213.857 290.609 212.786 290.392C212.248 290.283 211.953 290.081 211.458 289.845C210.962 289.609 210.513 289.232 210.301 288.727C210.588 288.903 210.929 288.993 211.267 288.978C210.842 288.89 210.564 288.407 210.636 287.978C210.709 287.549 211.068 287.202 211.485 287.072C211.898 286.939 212.357 286.997 212.765 287.145C213.172 287.293 213.544 287.531 213.912 287.764C214.932 288.416 215.3 288.317 216.321 288.969C216.526 289.102 217.097 289.806 217.205 290.026C217.311 290.247 217.552 290.757 217.323 290.845C217.691 291.316 217.667 292.008 217.414 292.554C217.163 293.098 216.725 293.53 216.294 293.95C216.01 292.974 215.201 293.204 214.914 292.228L215.4 290.911Z" fill="#17293C"/>
<path d="M215.883 291.654C216.037 291.691 216.146 291.842 216.167 292.002C216.185 292.159 216.131 292.319 216.049 292.455C215.971 292.594 215.868 292.715 215.78 292.847C215.672 293.011 215.572 293.204 215.385 293.261C215.213 293.316 215.02 293.225 214.911 293.083C214.802 292.941 214.76 292.757 214.742 292.579C214.917 292.588 215.068 292.458 215.168 292.316C215.267 292.171 215.328 292.005 215.436 291.866C215.539 291.727 215.711 291.615 215.883 291.654Z" fill="#B04492"/>
<path d="M226.488 350.473C226.289 350.947 226.057 351.412 225.718 351.799C225.534 352.007 225.22 352.195 225 352.029C224.873 351.932 224.84 351.757 224.822 351.6C224.659 350.237 224.837 348.836 225.335 347.561C225.755 347.425 226.235 347.619 226.512 347.963C226.79 348.307 226.884 348.769 226.847 349.21C226.814 349.645 226.66 350.068 226.488 350.473Z" fill="#411E2F"/>
<path d="M205.16 349.917C205.133 349.331 205.106 348.745 205.079 348.159C204.533 348.265 203.959 348.241 203.422 348.093C203.117 348.703 202.564 349.165 201.951 349.467C201.339 349.769 200.665 349.923 199.992 350.044C199.787 350.08 199.579 350.117 199.401 350.225C199.226 350.334 199.09 350.539 199.129 350.745C199.198 351.101 199.672 351.174 200.035 351.15C201.269 351.065 202.498 350.82 203.733 350.878C203.992 350.89 204.255 350.914 204.511 350.86C204.765 350.805 205.016 350.654 205.112 350.413C205.176 350.252 205.169 350.083 205.16 349.917Z" fill="#411E2F"/>
<path d="M183.359 294.826H174.019V309.306H183.359V294.826Z" fill="#B04492"/>
<path d="M220.728 299.076C220.728 299.076 216.1 296.019 208.321 296.496C208.321 296.496 211.18 311.191 203.421 324.931C203.421 324.931 209 329.795 214.633 331.9C215.666 326.97 216.562 322.011 217.311 317.03C217.776 322.177 217.184 327.351 216.505 332.483C217.607 332.761 218.69 332.912 219.708 332.848C219.705 332.848 222.923 306.763 220.728 299.076Z" fill="#E4E4E5"/>
<path d="M186.108 300.628C186.099 300.284 186.389 300.015 186.667 299.813C186.945 299.61 187.259 299.399 187.346 299.067C187.4 298.861 187.355 298.644 187.307 298.435C187.259 298.221 187.21 298.003 187.165 297.789C187.132 297.644 187.099 297.49 187.002 297.375C186.905 297.26 186.733 297.194 186.603 297.272C186.407 297.587 186.072 297.81 185.704 297.877C184.97 298.01 184.943 296.97 184.771 297.269C184.388 297.442 184.898 298.722 184.922 299.958C184.925 300.082 184.952 300.208 185.022 300.308C185.13 300.468 185.342 300.52 185.535 300.532C185.728 300.544 185.936 300.541 186.108 300.628Z" fill="#CE9A36"/>
<path d="M178.027 335.204C178.003 343.034 177.746 349.171 176.572 356.858C175.89 356.81 175.286 356.898 175.168 355.949C174.22 348.235 173.888 342.423 174.806 335.775C175.796 335.165 176.943 334.963 178.027 335.204Z" fill="#CE9A36"/>
<path d="M175.021 355.378C175.19 354.907 175.658 354.705 176.062 354.78C176.467 354.856 176.823 355.149 177.158 355.445C177.493 355.741 177.831 356.058 178.227 356.188C178.42 356.251 178.625 356.272 178.794 356.402C178.963 356.532 179.081 356.828 178.972 357.037C178.885 357.206 178.703 357.239 178.543 357.251C177.719 357.324 176.892 357.342 176.065 357.305C175.757 357.293 175.434 357.263 175.184 357.037C174.909 356.789 174.782 356.333 174.818 355.907C174.855 355.484 174.879 355.765 175.021 355.378Z" fill="#411E2F"/>
<path d="M165.777 335.204C165.753 343.034 165.496 349.171 164.322 356.858C163.64 356.81 163.036 356.898 162.918 355.949C161.97 348.235 161.638 342.423 162.556 335.775C163.546 335.165 164.693 334.963 165.777 335.204Z" fill="#CE9A36"/>
<path d="M162.767 355.378C162.936 354.907 163.404 354.705 163.809 354.78C164.213 354.856 164.569 355.149 164.905 355.445C165.24 355.741 165.578 356.058 165.973 356.188C166.166 356.251 166.372 356.272 166.541 356.402C166.71 356.532 166.827 356.828 166.719 357.037C166.631 357.206 166.45 357.239 166.29 357.251C165.466 357.324 164.639 357.342 163.812 357.305C163.504 357.293 163.181 357.263 162.93 357.037C162.656 356.789 162.529 356.333 162.565 355.907C162.604 355.484 162.628 355.765 162.767 355.378Z" fill="#411E2F"/>
<path d="M178.395 341.481C179.002 331.704 178.371 329.456 176.542 319.549H165.584C165.212 320.256 164.965 321.065 164.735 321.863C162.903 328.239 162.109 334.766 161.261 341.43L178.395 341.481Z" fill="#411E2F"/>
<path d="M186.265 299.783C186.413 299.828 186.57 299.903 186.628 300.048C186.655 300.115 186.652 300.19 186.652 300.263C186.643 300.677 186.631 301.09 186.622 301.504C185.807 301.269 184.946 301.181 184.098 301.245C184.041 301.03 183.983 300.813 183.983 300.589C183.98 300.366 184.044 300.136 184.195 299.973C184.352 299.804 184.584 299.731 184.81 299.689C185.29 299.601 185.795 299.635 186.265 299.783Z" fill="#CB273F"/>
<path d="M183.056 301.87C183.328 300.955 184.309 300.338 185.26 300.396C186.211 300.453 187.074 301.121 187.467 301.991C187.859 302.86 187.811 303.893 187.437 304.772C187.062 305.651 186.389 306.379 185.601 306.917C184.294 307.811 182.652 308.204 181.079 307.998C180.077 307.865 179.123 307.506 178.178 307.147C177.876 307.032 177.556 306.902 177.381 306.633C177.23 306.401 177.215 306.105 177.215 305.827C177.218 304.751 177.378 303.676 177.692 302.649C178.945 302.857 179.817 304.22 181.088 304.271C181.837 304.301 182.576 303.791 182.818 303.081C182.951 302.691 182.939 302.265 183.056 301.87Z" fill="#E4E4E5"/>
<path d="M170.9 292.573C172.487 292.017 174.386 292.488 175.527 293.723C177.058 295.379 177.094 297.919 178.184 299.894C176.182 301.556 173.484 302.344 170.903 302.027C168.322 301.71 165.897 300.287 164.358 298.188C166.966 296.919 168.158 293.53 170.9 292.573Z" fill="#411E2F"/>
<path d="M161.871 331.368C167.941 332.271 172.928 331.707 179.072 331.598C179.265 326.11 179.002 321.141 177.146 315.906C176.871 314.84 176.518 313.78 176.46 312.683C176.37 310.989 176.998 309.352 177.523 307.739C178.048 306.126 178.477 304.377 177.994 302.752C174.172 301.432 169.958 301.272 166.046 302.302C165.357 302.483 164.63 302.737 164.225 303.32C163.769 303.978 163.857 304.854 163.984 305.645C164.494 308.853 165.339 312.115 164.953 315.305C163.803 320.437 162.646 326.176 161.871 331.368Z" fill="#E4E4E5"/>
<path d="M65.8524 147.995C65.8524 148.418 65.5082 148.762 65.0856 148.762C64.663 148.762 64.3188 148.418 64.3188 147.995C64.3188 147.572 64.663 147.228 65.0856 147.228C65.5113 147.228 65.8524 147.572 65.8524 147.995Z" fill="#F7F8F9"/>
<path d="M107.276 124.015C107.276 124.438 106.932 124.782 106.509 124.782C106.087 124.782 105.743 124.438 105.743 124.015C105.743 123.592 106.087 123.248 106.509 123.248C106.932 123.251 107.276 123.592 107.276 124.015Z" fill="#F7F8F9"/>
<path d="M102.452 149.834C102.452 150.257 102.108 150.602 101.685 150.602C101.263 150.602 100.918 150.257 100.918 149.834C100.918 149.412 101.263 149.067 101.685 149.067C102.111 149.067 102.452 149.412 102.452 149.834Z" fill="#F7F8F9"/>
<path d="M150.535 121.946C150.535 122.369 150.191 122.713 149.769 122.713C149.346 122.713 149.002 122.369 149.002 121.946C149.002 121.523 149.346 121.179 149.769 121.179C150.194 121.182 150.535 121.523 150.535 121.946Z" fill="#F7F8F9"/>
<path d="M182.848 118.575C182.848 118.998 182.504 119.342 182.082 119.342C181.659 119.342 181.315 118.998 181.315 118.575C181.315 118.152 181.659 117.808 182.082 117.808C182.504 117.808 182.848 118.152 182.848 118.575Z" fill="#F7F8F9"/>
<path d="M190.35 145.083C190.35 145.506 190.006 145.85 189.583 145.85C189.161 145.85 188.816 145.506 188.816 145.083C188.816 144.66 189.161 144.316 189.583 144.316C190.009 144.319 190.35 144.66 190.35 145.083Z" fill="#F7F8F9"/>
<path d="M216.459 134.816C216.459 135.239 216.115 135.584 215.693 135.584C215.27 135.584 214.926 135.239 214.926 134.816C214.926 134.394 215.27 134.049 215.693 134.049C216.118 134.052 216.459 134.394 216.459 134.816Z" fill="#F7F8F9"/>
<path d="M226.721 113.289C226.721 113.712 226.376 114.056 225.954 114.056C225.531 114.056 225.187 113.712 225.187 113.289C225.187 112.866 225.531 112.522 225.954 112.522C226.379 112.525 226.721 112.866 226.721 113.289Z" fill="#F7F8F9"/>
<path d="M250.303 125.395C250.303 125.818 249.959 126.163 249.536 126.163C249.114 126.163 248.77 125.818 248.77 125.395C248.77 124.973 249.114 124.628 249.536 124.628C249.959 124.628 250.303 124.973 250.303 125.395Z" fill="#F7F8F9"/>
<defs>
<linearGradient id="paint0_linear" x1="136.215" y1="174.039" x2="119.658" y2="41.0438" gradientUnits="userSpaceOnUse">
<stop stop-color="#86579D"/>
<stop offset="0.0358" stop-color="#89569B"/>
<stop offset="0.3496" stop-color="#A6488A"/>
<stop offset="0.6262" stop-color="#BA397E"/>
<stop offset="0.8524" stop-color="#C62C77"/>
<stop offset="1" stop-color="#CC2575"/>
</linearGradient>
</defs>
</svg>
