<svg width="96" height="32" viewBox="0 0 96 32" fill="none" xmlns="http://www.w3.org/2000/svg">
<path fill-rule="evenodd" clip-rule="evenodd" d="M32.8138 21.9628C31.9053 22.8379 30.7371 23.338 29.1796 23.338C26.3241 23.338 23.9878 21.0877 23.9878 18.3374C23.9878 15.5871 26.3241 13.3369 29.1796 13.3369C30.7371 13.3369 31.9053 13.962 32.684 14.7121L31.6457 15.7122C30.9967 15.2121 30.2179 14.7121 29.1796 14.7121C27.1029 14.7121 25.5453 16.3372 25.5453 18.3374C25.5453 20.3376 27.1029 21.9628 29.1796 21.9628C30.4775 21.9628 31.2563 21.4628 31.7755 20.9627C32.1648 20.5877 32.4244 19.9626 32.5542 19.2125H29.1796V17.9624H33.982C33.982 18.2124 34.1118 18.4624 34.1118 18.8375C33.982 19.8376 33.7224 21.0877 32.8138 21.9628Z" fill="white"/>
<path fill-rule="evenodd" clip-rule="evenodd" d="M37.8756 22.0874C36.9671 22.0874 36.0585 21.3374 36.0585 20.2122C36.0585 19.0871 36.8373 18.337 37.8756 18.337C38.7842 18.337 39.6928 19.0871 39.6928 20.2122C39.6928 21.3374 38.914 22.0874 37.8756 22.0874ZM37.8756 17.0869C35.9287 17.0869 34.501 18.337 34.501 20.2122C34.501 21.9624 36.0585 23.3376 37.8756 23.3376C39.6928 23.3376 41.1205 22.0874 41.2503 20.2122C41.2503 18.4621 39.6928 17.0869 37.8756 17.0869Z" fill="white"/>
<path fill-rule="evenodd" clip-rule="evenodd" d="M46.8314 20.2122C46.8314 21.3374 45.9229 22.0874 45.0143 22.0874C44.1057 22.0874 43.1972 21.3374 43.1972 20.2122C43.1972 19.0871 43.976 18.337 45.0143 18.337C46.0527 18.337 46.9612 19.0871 46.8314 20.2122ZM45.0143 17.0869C43.0674 17.0869 41.6396 18.337 41.6396 20.2122C41.6396 21.9624 43.1972 23.3376 45.0143 23.3376C46.8314 23.3376 48.389 22.0874 48.389 20.2122C48.389 18.4621 46.8314 17.0869 45.0143 17.0869Z" fill="white"/>
<path fill-rule="evenodd" clip-rule="evenodd" d="M52.283 22.2125C51.2447 22.2125 50.4659 21.4624 50.4659 20.3373C50.4659 19.2121 51.2447 18.3371 52.283 18.3371C53.3214 18.3371 54.1002 19.0871 54.1002 20.3373C54.1002 21.4624 53.3214 22.2125 52.283 22.2125ZM53.9704 17.2119V17.712C53.7108 17.337 53.0618 16.9619 52.283 16.9619C50.7255 16.9619 49.168 18.4621 49.168 20.2123C49.168 21.9624 50.5957 23.3376 52.283 23.3376C53.0618 23.3376 53.581 22.9625 53.9704 22.5875V23.0876C53.9704 24.3377 53.1916 24.9627 52.1532 24.9627C51.2447 24.9627 50.7255 24.3377 50.4659 23.8376L49.168 24.3377C49.5574 25.2128 50.5957 26.2129 52.1532 26.2129C53.8406 26.2129 55.2683 25.3378 55.2683 22.9625H55.3981V17.2119H53.9704Z" fill="white"/>
<path fill-rule="evenodd" clip-rule="evenodd" d="M56.3066 23.2129H57.7344V13.8369H56.3066V23.2129Z" fill="white"/>
<path fill-rule="evenodd" clip-rule="evenodd" d="M61.6283 18.212C62.1475 18.212 62.6667 18.5871 62.9263 18.9621L59.941 20.0872C59.8112 18.8371 60.8496 18.212 61.6283 18.212ZM61.7581 22.0874C60.9794 22.0874 60.4602 21.8374 60.3304 21.2123L64.7434 19.4622L64.6136 19.0871C64.354 18.4621 63.4455 17.0869 61.7581 17.0869C60.0708 17.0869 58.6431 18.337 58.6431 20.2122C58.6431 21.9624 60.0708 23.3376 61.8879 23.3376C63.3157 23.3376 64.2242 22.4625 64.6136 21.9624L63.4455 21.2123C63.0561 21.7124 62.5369 22.0874 61.7581 22.0874Z" fill="white"/>
<path fill-rule="evenodd" clip-rule="evenodd" d="M75.2559 23.2129H76.6836V13.8369H75.2559V23.2129Z" fill="white"/>
<path fill-rule="evenodd" clip-rule="evenodd" d="M80.0593 22.0874C79.5401 22.0874 78.8911 21.9624 78.8911 21.3374C78.8911 20.5873 79.6699 20.3373 80.4486 20.2123C81.0976 20.2123 81.3572 20.4623 81.7466 20.5873C81.6168 21.4624 80.838 22.0874 80.0593 22.0874ZM80.3189 16.9619C79.2805 16.9619 78.1124 17.337 77.723 18.3371L79.0209 18.8371C79.2805 18.3371 79.7997 18.212 80.3189 18.212C81.0976 18.212 81.8764 18.7121 81.8764 19.4622V19.5872C81.6168 19.4622 80.9678 19.2121 80.3189 19.2121C78.8911 19.2121 77.4634 19.9622 77.4634 21.3374C77.4634 22.5875 78.6315 23.3376 79.9295 23.3376C80.838 23.3376 81.3572 22.9625 81.7466 22.4625V23.2126H83.1743H83.3041V19.5872C83.3041 17.837 82.0062 16.9619 80.3189 16.9619Z" fill="white"/>
<path fill-rule="evenodd" clip-rule="evenodd" d="M85.899 26.0878H84.3415L85.7692 22.9625L83.1733 17.3369H84.7309L86.4182 21.3373L88.1055 17.3369H89.7929L85.899 26.0878Z" fill="white"/>
<path fill-rule="evenodd" clip-rule="evenodd" d="M71.233 18.4624H69.1563V15.2121H71.233C72.2713 15.2121 72.9203 15.9621 72.9203 16.8372C72.9203 17.5873 72.2713 18.4624 71.233 18.4624ZM71.233 13.8369H67.7285V23.2129H69.1563V19.7125H71.233C72.7905 19.7125 74.348 18.5874 74.4778 16.7122C74.4778 14.962 72.7905 13.8369 71.233 13.8369Z" fill="white"/>
<path d="M4.62109 8.07129V15.6514V23.2315L12.376 15.6514L4.62109 8.07129Z" fill="white"/>
<path d="M15.0682 13.007L11.9386 11.2247L5.23145 7.40723V7.46209L12.9863 15.0422L15.0682 13.007Z" fill="white"/>
<path d="M5.23096 23.8408V23.897L11.9381 20.0782L15.0678 18.2973L12.9859 16.2607L5.23096 23.8408Z" fill="white"/>
<path d="M15.6766 13.6162L13.5947 15.6514L15.6766 17.6879L19.2541 15.6514L15.6766 13.6162Z" fill="white"/>
<path fill-rule="evenodd" clip-rule="evenodd" d="M4.40744 0.770193C2.39547 0.770193 0.770193 2.38615 0.770193 4.37246V26.9286C0.770193 28.9149 2.39547 30.5309 4.40744 30.5309H91.5926C93.6045 30.5309 95.2298 28.9149 95.2298 26.9286V4.37246C95.2298 2.38615 93.6045 0.770193 91.5926 0.770193H4.40744ZM0 4.37246C0 1.95445 1.97646 0 4.40744 0H91.5926C94.0235 0 96 1.95445 96 4.37246V26.9286C96 29.3466 94.0235 31.3011 91.5926 31.3011H4.40744C1.97646 31.3011 0 29.3466 0 26.9286V4.37246Z" fill="#E8EAEC"/>
<path d="M27.47 7.9002C27.47 8.31405 27.3165 8.6478 27.0094 8.90145C26.7068 9.1551 26.3241 9.28192 25.8613 9.28192C25.5009 9.28192 25.1894 9.23742 24.9268 9.14843C24.6687 9.05497 24.4195 8.89032 24.1792 8.65447L24.6531 8.17387C24.9869 8.48092 25.3852 8.63445 25.848 8.63445C26.1016 8.63445 26.313 8.5677 26.4821 8.4342C26.6556 8.29625 26.7424 8.11157 26.7424 7.88017C26.7424 7.63097 26.6668 7.44185 26.5155 7.3128C26.3686 7.1793 26.1639 7.11255 25.9014 7.11255H25.334V6.5118H25.9147C26.155 6.5118 26.3419 6.4495 26.4754 6.3249C26.6089 6.19585 26.6757 6.01562 26.6757 5.78422C26.6757 5.56617 26.5978 5.39485 26.442 5.27024C26.2907 5.14564 26.0949 5.08334 25.8546 5.08334C25.4274 5.08334 25.0737 5.20794 24.7933 5.45715L24.3461 4.99657C24.7599 4.63167 25.2717 4.44922 25.8813 4.44922C26.3174 4.44922 26.6779 4.56714 26.9627 4.80299C27.2519 5.03884 27.3966 5.35034 27.3966 5.7375C27.3966 6.227 27.1785 6.57632 26.7424 6.78547C27.2275 6.98127 27.47 7.35285 27.47 7.9002Z" fill="white"/>
<path d="M31.2872 9.24187H30.6197V8.93482C30.4862 9.06833 30.3549 9.15955 30.2259 9.2085C30.0968 9.253 29.9277 9.27525 29.7186 9.27525C29.3403 9.27525 29.0488 9.18847 28.8441 9.01492C28.6439 8.83692 28.5438 8.58327 28.5438 8.25397C28.5438 7.94692 28.6461 7.70662 28.8508 7.53307C29.06 7.35952 29.3448 7.27275 29.7052 7.27275H30.613V7.02577C30.613 6.80772 30.5529 6.64975 30.4328 6.55185C30.3126 6.4495 30.1191 6.39832 29.8521 6.39832C29.6652 6.39832 29.5139 6.42725 29.3982 6.4851C29.3092 6.52515 29.2179 6.60525 29.1245 6.7254L28.6773 6.30487C28.8464 6.12242 28.9932 6.0045 29.1178 5.9511C29.3003 5.8621 29.5517 5.8176 29.8721 5.8176C30.8155 5.8176 31.2872 6.20475 31.2872 6.97905V9.24187ZM30.613 8.02035V7.75335H29.812C29.4071 7.75335 29.2046 7.91355 29.2046 8.23395C29.2046 8.55435 29.4271 8.71455 29.8721 8.71455C30.1346 8.71455 30.3238 8.66115 30.4395 8.55435C30.5552 8.44755 30.613 8.26955 30.613 8.02035Z" fill="white"/>
<path d="M34.8935 6.45172H33.3783V9.24187H32.6974V5.85765H34.8935V6.45172Z" fill="white"/>
<path d="M38.61 7.55977C38.61 8.25397 38.4854 8.72567 38.2362 8.97487C38.0315 9.17957 37.7512 9.28192 37.3952 9.28192C37.2038 9.28192 37.0436 9.253 36.9146 9.19515C36.7855 9.1373 36.6565 9.03717 36.5274 8.89477V10.6103H35.8466V5.85765H36.5141V6.21142C36.6565 6.06457 36.7878 5.96222 36.9079 5.90437C37.0325 5.84652 37.1927 5.8176 37.3885 5.8176C38.0204 5.8176 38.4031 6.10907 38.5366 6.69202C38.5856 6.91007 38.61 7.19932 38.61 7.55977ZM37.769 8.41417C37.8802 8.24062 37.9359 7.95137 37.9359 7.54642C37.9359 7.14147 37.8802 6.85445 37.769 6.68535C37.6622 6.5118 37.482 6.42502 37.2283 6.42502C36.9524 6.42502 36.7611 6.53405 36.6543 6.7521C36.5697 6.92565 36.5274 7.19932 36.5274 7.57312C36.5274 7.96472 36.5831 8.2473 36.6943 8.42085C36.8056 8.58995 36.9858 8.6745 37.235 8.6745C37.4842 8.6745 37.6622 8.58772 37.769 8.41417Z" fill="white"/>
<path d="M42.3482 5.85765L40.853 9.91605C40.6928 10.3611 40.379 10.5836 39.9118 10.5836H39.6381V9.96945H39.8117C39.9541 9.96945 40.0586 9.94498 40.1254 9.89603C40.1921 9.85153 40.25 9.75808 40.2989 9.61568L40.4858 9.08168L39.2977 5.85765H40.0253L40.8329 8.2473L41.6206 5.85765H42.3482Z" fill="white"/>
<path d="M45.5969 8.26065C45.5969 8.56325 45.4701 8.81022 45.2164 9.00157C44.9672 9.18848 44.6646 9.28192 44.3086 9.28192C43.7168 9.28192 43.2428 9.1195 42.8868 8.79465L43.294 8.36077C43.5388 8.58772 43.8458 8.7012 44.2152 8.7012C44.4021 8.7012 44.5667 8.65892 44.7091 8.57437C44.856 8.48537 44.9294 8.36745 44.9294 8.2206C44.9294 7.918 44.7336 7.7667 44.342 7.7667H43.8347V7.25272H44.3353C44.5 7.25272 44.6313 7.21267 44.7292 7.13257C44.8271 7.05247 44.876 6.94122 44.876 6.79882C44.876 6.66087 44.8159 6.5563 44.6958 6.4851C44.5801 6.40945 44.4199 6.37162 44.2152 6.37162C43.917 6.37162 43.6456 6.4584 43.4008 6.63195L43.0203 6.19807C43.3496 5.94442 43.7857 5.8176 44.3286 5.8176C44.6713 5.8176 44.9583 5.89992 45.1897 6.06457C45.4256 6.22477 45.5435 6.44727 45.5435 6.73207C45.5435 6.89672 45.499 7.0458 45.41 7.1793C45.321 7.3128 45.2009 7.4107 45.0496 7.473C45.2142 7.5353 45.3455 7.63765 45.4434 7.78005C45.5457 7.918 45.5969 8.0782 45.5969 8.26065Z" fill="white"/>
<path d="M49.6771 9.24187H48.9962V6.9123L47.5477 9.24187H46.8669V5.85765H47.5477V8.15385L48.9962 5.85765H49.6771V9.24187Z" fill="white"/>
<path d="M53.4151 6.45172H52.3805V9.24187H51.6996V6.45172H50.625V5.85765H53.4151V6.45172Z" fill="white"/>
<path d="M56.9776 7.75335H54.7882C54.8016 8.38525 55.0975 8.7012 55.676 8.7012C55.9608 8.7012 56.2256 8.58327 56.4703 8.34742L56.8975 8.7546C56.7017 8.94595 56.5104 9.08167 56.3235 9.16177C56.141 9.24187 55.9163 9.28192 55.6493 9.28192C55.142 9.28192 54.7593 9.13507 54.5012 8.84137C54.2431 8.54322 54.1141 8.10712 54.1141 7.53307C54.1141 7.00352 54.2409 6.58522 54.4945 6.27817C54.7526 5.97112 55.1042 5.8176 55.5492 5.8176C55.9853 5.8176 56.3324 5.96445 56.5905 6.25815C56.8486 6.55185 56.9776 6.9479 56.9776 7.4463V7.75335ZM56.3101 7.27275C56.2656 6.6809 56.012 6.38497 55.5492 6.38497C55.2955 6.38497 55.1064 6.46952 54.9818 6.63862C54.8617 6.80327 54.7971 7.01465 54.7882 7.27275H56.3101Z" fill="white"/>
<path d="M62.8536 8.28735C62.8536 8.58105 62.7624 8.81467 62.5799 8.98822C62.3975 9.15732 62.1483 9.24187 61.8323 9.24187H60.1569V5.85765H61.7789C62.0904 5.85765 62.3374 5.93997 62.5199 6.10462C62.7068 6.26927 62.8002 6.48955 62.8002 6.76545C62.8002 7.10365 62.6422 7.34617 62.3263 7.49302C62.6778 7.65322 62.8536 7.918 62.8536 8.28735ZM62.1327 6.81217C62.1327 6.67867 62.0882 6.57632 61.9992 6.50512C61.9147 6.42947 61.7923 6.39165 61.6321 6.39165H60.8311V7.24605H61.6321C61.9658 7.24605 62.1327 7.10142 62.1327 6.81217ZM62.1861 8.24062C62.1861 8.09377 62.1394 7.9803 62.0459 7.9002C61.9569 7.81565 61.8323 7.77337 61.6721 7.77337H60.8311V8.71455H61.6721C61.8323 8.71455 61.9569 8.67227 62.0459 8.58772C62.1394 8.49872 62.1861 8.38302 62.1861 8.24062Z" fill="white"/>
</svg>
