<?xml version="1.0" standalone="no"?>
<!DOCTYPE svg PUBLIC "-//W3C//DTD SVG 20010904//EN"
 "http://www.w3.org/TR/2001/REC-SVG-20010904/DTD/svg10.dtd">
<svg version="1.0" xmlns="http://www.w3.org/2000/svg"
 width="400.000000pt" height="400.000000pt" viewBox="0 0 400.000000 400.000000"
 preserveAspectRatio="xMidYMid meet">
<metadata>
Created by potrace 1.11, written by Peter Selinger 2001-2013
</metadata>
<g transform="translate(0.000000,400.000000) scale(0.100000,-0.100000)"
fill="#000000" stroke="none">
<path d="M1905 3986 c-35 -11 -537 -217 -730 -298 -38 -16 -74 -31 -80 -32 -5
-2 -23 -8 -39 -15 -38 -15 -195 -81 -221 -92 -11 -4 -54 -22 -95 -39 -139 -58
-190 -114 -260 -285 -23 -55 -48 -113 -55 -130 -48 -107 -383 -912 -401 -965
-18 -51 -23 -82 -20 -140 3 -79 -7 -52 208 -575 27 -66 65 -158 84 -205 40
-97 46 -112 67 -160 8 -19 43 -105 77 -189 67 -168 93 -219 140 -268 44 -46
92 -72 300 -158 102 -42 199 -83 215 -90 17 -8 206 -87 420 -176 l390 -163 90
0 c90 -1 90 -1 280 78 105 43 209 87 232 97 24 11 78 33 120 50 111 44 160 64
228 92 33 13 134 55 225 92 285 116 329 143 385 240 18 31 417 973 508 1200
24 62 31 176 13 237 -8 24 -66 172 -131 328 -64 157 -131 319 -147 360 -16 41
-36 90 -44 107 -35 81 -45 106 -94 228 -95 240 -131 296 -223 349 -23 13 -125
59 -227 101 -102 42 -198 83 -215 90 -16 8 -204 86 -418 175 -365 151 -392
161 -465 165 -50 3 -91 0 -117 -9z m-978 -888 c110 -106 221 -221 268 -277 73
-89 69 -41 70 -696 l1 -590 24 -50 c31 -64 97 -130 160 -159 62 -29 145 -28
212 2 59 26 131 99 159 160 22 48 22 55 33 368 4 136 11 157 85 243 51 61 243
255 310 315 40 35 44 37 60 22 14 -15 16 -65 18 -463 1 -245 4 -457 8 -471 13
-52 93 -140 159 -174 60 -31 165 -31 226 0 80 42 147 122 170 202 5 18 10 304
10 639 1 334 5 613 10 621 5 7 15 15 24 16 16 2 303 -275 368 -356 76 -95 76
-99 78 -715 1 -273 -15 -354 -99 -510 -46 -86 -56 -99 -144 -186 -153 -153
-331 -221 -557 -215 -96 3 -129 8 -202 33 -92 32 -200 92 -257 142 -19 18 -38
28 -45 23 -7 -4 -36 -26 -66 -49 -91 -69 -209 -121 -325 -142 -50 -10 -211 -8
-272 2 -126 22 -283 107 -388 211 -105 103 -179 232 -216 374 -20 73 -20 103
-19 622 1 300 2 669 2 820 0 151 4 285 9 298 5 12 15 22 24 22 9 0 54 -37 102
-82z"/>
</g>
</svg>
